<svg xmlns="http://www.w3.org/2000/svg" viewBox="0 0 75.85 75.84"><defs><style>.cls-1{fill:#c69c6d;}</style></defs><g id="圖層_2" data-name="圖層 2"><g id="分享圖案"><path class="cls-1" d="M62.25,74.69c-11.31,0-22.61.44-33.92.8-2.82.08-5.65.2-8.48.24l-4.24.09-2.12,0a14.07,14.07,0,0,1-2.31-.15A13.18,13.18,0,0,1,0,62.54L.41,45.59c.16-5.66.3-11.31.35-17l0-8.48V15.91A28.53,28.53,0,0,1,.91,11.6,12.78,12.78,0,0,1,13.25.72Q30.2.29,47.17.13L55.64.06l4.24,0L62,0a16,16,0,0,1,2.36.16,13.33,13.33,0,0,1,8.21,4.56,13.7,13.7,0,0,1,3.28,8.82c-.07,11.31-.16,22.62-.61,33.92l-.3,8.48-.14,4.24-.07,2.12a13.32,13.32,0,0,1-.23,2.17,12.52,12.52,0,0,1-4.32,7.35A12.38,12.38,0,0,1,62.25,74.69Zm0-.3a11.84,11.84,0,0,0,7.64-2.91,11.42,11.42,0,0,0,3.79-7.14,27.47,27.47,0,0,0,0-4.16l-.13-4.24-.3-8.48c-.46-11.3-.54-22.61-.61-33.92A10.51,10.51,0,0,0,63.87,3.25,11.22,11.22,0,0,0,62,3.09l-2.12,0L55.64,3,47.17,3c-11.31-.09-22.62-.31-33.92-.59A11.34,11.34,0,0,0,5.89,4.93a11.11,11.11,0,0,0-4,6.83,26.81,26.81,0,0,0-.19,4.15v4.24l0,8.48c0,5.65.19,11.3.34,17L2.5,62.54a11.06,11.06,0,0,0,2.66,6.92,10.88,10.88,0,0,0,6.43,3.62,11.69,11.69,0,0,0,1.9.16l2.12,0,4.24.09c2.83.05,5.66.16,8.48.25C39.64,74,50.94,74.44,62.25,74.39Z"/><path class="cls-1" d="M53.6,38a17.49,17.49,0,0,1-4.27,11.59,14.92,14.92,0,0,1-11.58,5,16.45,16.45,0,0,1-6.24-1.52A17.72,17.72,0,0,1,21.45,38,16,16,0,0,1,26,26.24a16.67,16.67,0,0,1,5.37-3.71,16.06,16.06,0,0,1,12.82.07,15.07,15.07,0,0,1,5.21,3.84A17.51,17.51,0,0,1,53.6,38Zm-.2,0a14.29,14.29,0,0,0-5-10.67,16.18,16.18,0,0,0-10.67-4,15.24,15.24,0,0,0-10.47,4.21A15.62,15.62,0,0,0,22.55,38a14.56,14.56,0,0,0,1,5.9,14.19,14.19,0,0,0,3.33,5,14.88,14.88,0,0,0,10.91,4,17.17,17.17,0,0,0,10.69-4.22A15.23,15.23,0,0,0,52.06,44,13.9,13.9,0,0,0,53.4,38Z"/><circle class="cls-1" cx="59.19" cy="15.61" r="6.19"/><path class="cls-1" d="M65.42,15.61a7,7,0,0,1-1.64,4.59,5.77,5.77,0,0,1-4.59,2A6.62,6.62,0,0,1,54.7,20.1a7,7,0,0,1-2-4.49,6.27,6.27,0,0,1,1.75-4.71,6.5,6.5,0,0,1,4.71-2A6.06,6.06,0,0,1,63.79,11,7,7,0,0,1,65.42,15.61Zm-.1,0a5.47,5.47,0,0,0-2-4.15A6.48,6.48,0,0,0,59.19,10a6,6,0,0,0-4,1.61,6.2,6.2,0,0,0-1.87,4,5.53,5.53,0,0,0,1.66,4.26,5.74,5.74,0,0,0,4.26,1.51,6.92,6.92,0,0,0,4.15-1.62A5.46,5.46,0,0,0,65.32,15.61Z"/></g></g></svg>