<svg xmlns="http://www.w3.org/2000/svg" viewBox="0 0 75.85 75.84"><defs><style>.cls-1{fill:#fff;}.cls-2{fill:#e5e5e5;}</style></defs><g id="圖層_2" data-name="圖層 2"><g id="分享圖案"><path class="cls-1" d="M37.92,31.26c-.16,0-.32.22-.59.71q-3.11,5.7-6.19,11.41a1.53,1.53,0,0,0,1.07,2.31,3.53,3.53,0,0,0,.86.06c1.86,0,1.86,0,1.85,1.83,0,2.2,0,4.4,0,6.6,0,1.5-.48,2.06-2,2.14s-2.95.07-4.43,0-2.05-.6-2.07-2.17c0-2.16,0-4.32,0-6.49,0-1.61,0-1.66-1.61-1.66-2.13,0-4.26,0-6.39,0-1.95,0-2.74-1.47-1.81-3.16q4.59-8.28,9.13-16.58c1-1.86,2.05-3.72,3.1-5.57a2,2,0,0,1,3.71,0c1.54,2.73,3,5.48,4.58,8.22.21.36.32.95.76,1"/><path class="cls-2" d="M37.9,29.92c.48,0,.57-.59.77-.94,1.48-2.65,2.91-5.32,4.41-7.95,1.18-2.09,2.93-2.09,4.08,0q6,10.88,12,21.78c1,1.87.23,3.2-1.92,3.21s-4.33.05-6.49,0c-1.06,0-1.38.39-1.36,1.4.05,2.24,0,4.47,0,6.71,0,1.64-.57,2.22-2.21,2.25-1.44,0-2.88,0-4.32,0s-2-.66-2-2,0-2.45,0-3.68,0-2.6,0-3.9c0-.68.28-1,1-1a9,9,0,0,0,1.72-.11c1.32-.26,1.75-1.12,1.11-2.31-1.43-2.67-2.9-5.32-4.35-8-.61-1.11-1.2-2.22-1.81-3.33-.28-.49-.44-.75-.61-.76"/><path class="cls-1" d="M62.25,74.69c-11.31,0-22.61.44-33.92.8-2.82.08-5.65.2-8.48.24l-4.24.09-2.12,0a14.07,14.07,0,0,1-2.31-.15A13.18,13.18,0,0,1,0,62.54L.41,45.59c.16-5.66.3-11.31.35-17l0-8.48V15.91A28.53,28.53,0,0,1,.91,11.6,12.78,12.78,0,0,1,13.25.72C24.55.44,35.86.22,47.17.13L55.64.06l4.24,0L62,0a16,16,0,0,1,2.36.16,13.33,13.33,0,0,1,8.21,4.56,13.7,13.7,0,0,1,3.28,8.82c-.07,11.31-.16,22.61-.61,33.92l-.3,8.48-.14,4.24-.07,2.12a13.32,13.32,0,0,1-.23,2.17,12.52,12.52,0,0,1-4.32,7.35A12.38,12.38,0,0,1,62.25,74.69Zm0-.3a11.84,11.84,0,0,0,7.64-2.91,11.42,11.42,0,0,0,3.79-7.14,28.81,28.81,0,0,0,0-4.16l-.14-4.24-.3-8.48c-.46-11.31-.54-22.61-.61-33.92A10.51,10.51,0,0,0,63.87,3.25,11.22,11.22,0,0,0,62,3.09l-2.12,0L55.64,3,47.17,3c-11.31-.09-22.62-.31-33.92-.59A11.34,11.34,0,0,0,5.89,4.93a11.11,11.11,0,0,0-4,6.83,26.81,26.81,0,0,0-.19,4.15v4.24l0,8.48c0,5.65.19,11.3.34,17L2.5,62.54a11.06,11.06,0,0,0,2.66,6.92,10.88,10.88,0,0,0,6.43,3.62,11.69,11.69,0,0,0,1.9.16l2.12,0,4.24.09c2.83.05,5.66.16,8.48.25C39.64,74,50.94,74.44,62.25,74.39Z"/></g></g></svg>