<svg xmlns="http://www.w3.org/2000/svg" viewBox="0 0 89.25 83.96"><defs><style>.cls-1{fill:none;}.cls-2{fill:#a92500;fill-rule:evenodd;}</style></defs><g id="圖層_2" data-name="圖層 2"><g id="紅圈圈"><path class="cls-1" d="M1.86,35c-.29.84-.57,1.69-.82,2.55L.69,38.88c-.11.43-.18.9-.26,1.36C.28,41.15.15,42.07.05,43S0,44.86,0,45.79c0,.47,0,.94.05,1.4l.16,1.35c.13.9.25,1.83.45,2.68a32,32,0,0,0,3.63,9c.37.66.76,1.2,1.16,1.8s.79,1.19,1.2,1.7L7.9,65.28c.41.51.84,1,1.26,1.42.86,1,1.72,1.77,2.59,2.61a57.09,57.09,0,0,0,11,7.87,55.55,55.55,0,0,0,12.57,5.13,47.31,47.31,0,0,0,14.45,1.6A39.91,39.91,0,0,0,65.1,80.06a39,39,0,0,0,12.68-9.78A17.13,17.13,0,0,0,79,68.86L80,67.47l1-1.41,1-1.51a49.53,49.53,0,0,0,3.45-6.34,44.55,44.55,0,0,0,3.67-14.6A40.73,40.73,0,0,0,87.26,28,40.78,40.78,0,0,0,79.43,14.3,45.8,45.8,0,0,0,74,9a47.93,47.93,0,0,0-6.19-4.23l-1.71-1c-.63-.29-1.28-.58-1.92-.85a25.74,25.74,0,0,0-4-1.49,28,28,0,0,0-4.34-1A29.8,29.8,0,0,0,51.34,0a28.86,28.86,0,0,0-4.48.17A29.7,29.7,0,0,0,42.59.9,31.36,31.36,0,0,0,38.65,2a33.79,33.79,0,0,0-3.58,1.43,58.62,58.62,0,0,0-11.31,6.92c-3.17,2.41-5.9,4.81-8.4,7L35.87,40.55c2.38-2.12,4.57-4,6.61-5.56a29.15,29.15,0,0,1,5.32-3.35,6.11,6.11,0,0,1,2.68-.72,4.42,4.42,0,0,1,2.07.74c5.66,3.6,7.08,7.8,4.66,14A21.75,21.75,0,0,1,56,47.91l-.34.57-.43.54-.41.56a3,3,0,0,1-.39.47A8,8,0,0,1,51.7,52.2a9.07,9.07,0,0,1-3.51.82,16.23,16.23,0,0,1-4.95-.59,24.27,24.27,0,0,1-5.52-2.28,26.09,26.09,0,0,1-4.94-3.51,8.77,8.77,0,0,1-2-2.39l-.48.18-.36.11-.24.1a5.67,5.67,0,0,1-1.06.28l-.15,0-.06,0-.15,0a1.55,1.55,0,0,1-.31.06l-.35,0H27.4a2.78,2.78,0,0,1,.37,0l.18,0a3.27,3.27,0,0,1,.45.1,5.2,5.2,0,0,1,.79.29Z"/><path class="cls-2" d="M28.56,28.83c.26.09.37,0,.38-.21C28.83,28.71,28.54,28.57,28.56,28.83Z"/><path class="cls-2" d="M28.46,28.11c.07-.14.4,0,.38-.21C28.68,27.93,28.38,27.78,28.46,28.11Z"/><path class="cls-2" d="M30.08,28.32c.21,0,.08-.14.21-.32-.16-.08-.2,0-.3,0C30,28.13,30.09,28.18,30.08,28.32Z"/><path class="cls-2" d="M36.78,30.21l.29.11c-.06-.23.1-.15.06-.34C36.87,29.86,36.76,29.94,36.78,30.21Z"/><path class="cls-2" d="M29.14,27.68c.06.18.44.16.38-.05s-.14,0-.39-.11C29.18,27.6,29.23,27.69,29.14,27.68Z"/><path class="cls-2" d="M37.35,30c.13-.1.27.08.44.17a.83.83,0,0,0-.45-.47Z"/><path class="cls-2" d="M32.4,27.32c.1.21.42.09.3-.21C32.43,27,32.65,27.43,32.4,27.32Z"/><path class="cls-2" d="M39,29.52c.07,0,.11-.16.14,0s0-.25.07-.33a.82.82,0,0,0,.56.18c-.3-.42,0-.53,0-.78-.11.05-.17.18-.41,0,.19.29,0,.21,0,.44a.6.6,0,0,0-.21-.17c0,.19-.1.24-.28.17A.88.88,0,0,0,39,29.52Z"/><path class="cls-2" d="M33,27.12l.31.1c-.06-.08-.12-.25,0-.23A.16.16,0,1,0,33,27.12Z"/><path class="cls-2" d="M32.38,25.38c.16,0,.23-.16.23-.39C32.46,25,32.19,25.12,32.38,25.38Z"/><path class="cls-2" d="M42.55,29.06c.19.12.33,0,.19-.24C42.67,28.88,42.56,28.89,42.55,29.06Z"/><path class="cls-2" d="M33.6,24.7c.15-.06.46.12.39-.26C33.81,24.46,33.63,24.48,33.6,24.7Z"/><path class="cls-2" d="M39.82,25.7c.22,0,0-.23.16-.45a.29.29,0,0,1-.21,0C39.94,25.61,39.58,25.42,39.82,25.7Z"/><path class="cls-2" d="M34.4,23.1c-.07-.21-.35,0-.61-.22C33.84,23.2,34.21,23.07,34.4,23.1Z"/><path class="cls-2" d="M36,22.62c.12-.11.31-.09.32-.35-.21,0-.36.12-.61.07C35.67,22.53,36.09,22.43,36,22.62Z"/><path class="cls-2" d="M43.75,26.58c.13.37.22,0,.31,0C44,26.27,43.83,26.6,43.75,26.58Z"/><path class="cls-2" d="M43.38,25.28c-.19-.18-.09.2-.32-.06a.62.62,0,0,0,.23.45C43.24,25.35,43.52,25.56,43.38,25.28Z"/><path class="cls-2" d="M46.64,28c.16.1.29.19.31,0C46.85,28,46.71,27.87,46.64,28Z"/><path class="cls-2" d="M33,20.22c.22.14.21,0,.39.05.06-.23-.14-.31-.36-.37Z"/><path class="cls-2" d="M35,20.86c.26.16.33,0,.46,0C35.4,20.68,34.92,20.55,35,20.86Z"/><path class="cls-2" d="M34,19.83c.06,0,.07,0,.08,0,.51.07.66-.41,1.14-.39.08-.28-.16-.39-.16-.63-.3-.05,0,.27-.2.33s-.22-.24-.39-.15c.18.3-.11.37-.13.61-.23-.14-.29,0-.47-.09C33.75,19.68,34.11,19.61,34,19.83Z"/><path class="cls-2" d="M45.16,25.16c-.09-.05,0-.26.09-.24,0-.33-.1.1-.23-.12-.08.19.06.3.07.45a1,1,0,0,0,.35.14A.21.21,0,0,0,45.16,25.16Z"/><path class="cls-2" d="M27.79,17c.23,0,.54.16.51-.19C28.11,16.89,27.85,16.82,27.79,17Z"/><path class="cls-2" d="M27.49,16.71c.07.22.36,0,.34-.16C27.53,16.34,27.65,16.72,27.49,16.71Z"/><path class="cls-2" d="M28.39,16.71c0-.2-.11-.29-.13-.45-.11,0-.14.1-.25.09C28.05,16.53,28.2,16.63,28.39,16.71Z"/><path class="cls-2" d="M45.5,24.9c.13.36.29.05.45.21C45.89,24.7,45.59,24.83,45.5,24.9Z"/><path class="cls-2" d="M24.35,14.47c.18,0,.28-.32.33-.77C24.56,14,24.34,14.05,24.35,14.47Z"/><path class="cls-2" d="M46.78,25c-.06-.2-.3-.41-.32-.18S46.78,25.28,46.78,25Z"/><path class="cls-2" d="M32.09,16.52c.28.11.67-.37.23-.52C32.37,16.37,32.15,16.31,32.09,16.52Z"/><path class="cls-2" d="M37.25,18.26c.2.28.6.09.62-.29-.13,0-.13-.13-.12-.23C37.4,17.57,37.55,18.33,37.25,18.26Z"/><path class="cls-2" d="M27.93,14.48c.36.14.54,0,.63-.25C28.42,14.41,28,14.17,27.93,14.48Z"/><path class="cls-2" d="M47.38,25a.11.11,0,0,1,.09.12c.1-.3.37.07.47-.25C47.7,25,47.38,24.28,47.38,25Z"/><path class="cls-2" d="M34.23,15.57c.24.19.16-.2.22-.34a.36.36,0,0,1-.25,0A.51.51,0,0,1,34.23,15.57Z"/><path class="cls-2" d="M48,24.89c0,.24.1.07.16.24-.13-.38.09,0,.13-.34-.13-.32-.07.28-.2,0C48.06,24.85,48,25,48,24.89Z"/><path class="cls-2" d="M48.34,25c.19.08.32.55.39.27-.18-.21,0-.42-.2-.62C48.6,25.06,48.38,24.73,48.34,25Z"/><path class="cls-2" d="M33,13.12c.25-.06.48-.41.12-.58C33,12.82,32.94,12.81,33,13.12Z"/><path class="cls-2" d="M49.2,24.94c.13.29.2,0,.3.13a.61.61,0,0,1,0,.44c.17.17.12-.46.35-.39-.07-.27-.06-.15-.17-.37-.09.24,0,.07.09.31C49.57,25.09,49.36,24.7,49.2,24.94Z"/><path class="cls-2" d="M43.74,17c.25.12.39-.21.4-.45C43.93,16.55,43.71,16.62,43.74,17Z"/><path class="cls-2" d="M39.07,13.8c.19-.05.09.06.3.16,0-.17-.08-.29-.12-.43S39.12,13.69,39.07,13.8Z"/><path class="cls-2" d="M44.05,13a.61.61,0,0,0,.66-.32C44.51,12.85,44,12.68,44.05,13Z"/><path class="cls-2" d="M38.26,6.94c.21.11.33,0,.51,0,.18-.19-.43-.13-.25-.32C38.39,6.63,38.34,6.83,38.26,6.94Z"/><path class="cls-2" d="M33.75,5.06c.32,0,.52-.21.68-.56C34.2,4.66,33.69,4.79,33.75,5.06Z"/><path class="cls-2" d="M49.69,14.34l.2.27c0-.1,0-.19.1-.12C50.09,14.3,49.77,14.12,49.69,14.34Z"/><path class="cls-2" d="M39.41,5.11c.35.11.58-.22,1,0,.08-.18-.12-.27-.19-.41.16-.17.51,0,.43-.33-.18,0-.27.29-.49.09C40.12,5,39.64,4.73,39.41,5.11Z"/><path class="cls-2" d="M50.72,12.94c.09,0,.17.14.27.08a.27.27,0,0,0-.14-.46C50.6,12.67,51,12.82,50.72,12.94Z"/><path class="cls-2" d="M43.44,3.86c.08.31,1,.21,1-.19C44.13,3.78,43.82,4,43.44,3.86Z"/><path class="cls-2" d="M42.39,1.8c.29.14.53,0,.75-.28C42.89,1.62,42.61,1.56,42.39,1.8Z"/><path class="cls-2" d="M47.27,4.41c.25,0,.5.19.74,0A.78.78,0,0,0,47.27,4.41Z"/><path class="cls-2" d="M50,4.87c.17.12.35,0,.52.09.08-.11-.11-.22-.21-.33Z"/><path class="cls-2" d="M51.09,4.73c.18.24.4,0,.59.16C51.79,4.76,51.28,4.43,51.09,4.73Z"/><path class="cls-2" d="M57.79,15.37c.06,0,.05-.06.05-.11s.09.11.13.2.24-.38.36-.17c.25-.13-.22-.19,0-.28C58.18,15,57.65,15,57.79,15.37Z"/><path class="cls-2" d="M58.47,15.22c0,.15.09.12.19.09s.06.22,0,.28.19,0,.31-.06l-.09-.4C58.66,15.29,58.64,15.1,58.47,15.22Z"/><path class="cls-2" d="M59,16.82c.08.13.23.12.41.07C59.36,16.63,59.17,16.71,59,16.82Z"/><path class="cls-2" d="M55,6.1c.29.13.37-.31.26-.47C54.89,5.56,55.09,5.93,55,6.1Z"/><path class="cls-2" d="M54.58,5.24c.36.18.86.46,1.14,0C55.32,5.32,55,4.86,54.58,5.24Z"/><path class="cls-2" d="M55.51,6.13c.25,0,.46.14.74,0-.21-.14-.48-.11-.68-.28C55.49,6,55.62,6.07,55.51,6.13Z"/><path class="cls-2" d="M56.39,7.48c.61.06.69.31.49-.45C56.55,7.13,56.53,7.32,56.39,7.48Z"/><path class="cls-2" d="M60.27,17.47c0,.25.17.34.4.27C60.56,17.61,60.52,17.37,60.27,17.47Z"/><path class="cls-2" d="M61.88,19.28c.55,0,.68.48,1.18.25a2.11,2.11,0,0,0-1-.47c0-.1.14-.11.23-.15C62.2,18.52,61.9,18.93,61.88,19.28Z"/><path class="cls-2" d="M60.47,8.28c.25.31.32-.4.44-.15C61.1,7.76,60.43,8.1,60.47,8.28Z"/><path class="cls-2" d="M60.86,8.25a.48.48,0,0,0,.63.09A.56.56,0,0,0,60.86,8.25Z"/><path class="cls-2" d="M63.86,20.29l0,.32c.14,0,.17-.13.32-.15C64,20.43,64.06,20.23,63.86,20.29Z"/><path class="cls-2" d="M63.88,11.71c.16-.07.11-.28.4-.27C64.07,11.22,63.53,11.44,63.88,11.71Z"/><path class="cls-2" d="M74.27,12.83c0,.5.47.37.67.22A1.33,1.33,0,0,0,74.27,12.83Z"/><path class="cls-2" d="M78.58,18.29c0,.38.41,0,.39.49-.12.25-.28-.13-.45-.12,0,.32.31.41.6.36a.27.27,0,0,1,.07-.38c.43.08.19.6.65.67-.08-.14-.23-.24-.1-.52A.73.73,0,0,1,79.2,18C79,18.08,79,18.48,78.58,18.29Z"/><path class="cls-2" d="M80.11,20.47l-.08.36c.35.11.24.18.56.17.06-.33-.63-.38-.11-.42C80.51,20.35,80.17,20.46,80.11,20.47Z"/><path class="cls-2" d="M80.38,21.51c.14-.09.4,0,.64.14l.07-.28c-.11,0-.15-.08-.15-.16-.22.11-.11.14-.39,0C80.52,21.35,80.39,21.34,80.38,21.51Z"/><path class="cls-2" d="M80.65,22.63c.32.1.24.4.53.52,0-.34-.4-.48-.23-.91C80.65,22.25,80.86,22.41,80.65,22.63Z"/><path class="cls-2" d="M81.71,23.36c-.22-.12-.39-.12-.43.13a.49.49,0,0,0,.24.2A.53.53,0,0,0,81.71,23.36Z"/><path class="cls-2" d="M81.63,23.63c0,.17-.17.15-.2.32.15.09.28-.05.26.11s.15-.19.21-.32Z"/><path class="cls-2" d="M82.28,23.81c-.14,0-.27.67.06.74C82.35,24.29,82.44,24,82.28,23.81Z"/><path class="cls-2" d="M83.17,27.85c.28.08.26.26.46.37.18-.23-.16-.3,0-.53C83.45,27.61,83.24,27.53,83.17,27.85Z"/><path class="cls-2" d="M84,29.88a.4.4,0,0,0,.13.54l.18-.33Z"/><path class="cls-2" d="M84.21,31.19a7.73,7.73,0,0,0,.05.84c.19.2.2-.48.39-.29,0-.18-.13-.11-.23-.17S84.5,31.27,84.21,31.19Z"/><path class="cls-2" d="M85.09,32c-.08.18.24.29.16.48.23-.08.23-.27.22-.55C85.31,31.78,85.25,32.11,85.09,32Z"/><path class="cls-2" d="M84.43,33.69c.41.36.11.82.14,1.23.42.23.38-.56.68-.78-.36,0-.38.09-.55-.35.23-.34.43-.33.36-.69C84.7,33.1,84.65,33.28,84.43,33.69Z"/><path class="cls-2" d="M85.26,33.64c-.05.32.14.6,0,.92C85.47,34.52,85.66,33.85,85.26,33.64Z"/><path class="cls-2" d="M85.74,35.08c-.11.13,0,.24-.15.37.21.18.36-.21.57,0a.47.47,0,0,0-.17-.42C85.82,35.38,86,35.36,85.74,35.08Z"/><path class="cls-2" d="M86,37.12c-.16.13-.13.24-.19.36.15-.06.3.11.44-.08C86,37.38,86.18,37.3,86,37.12Z"/><path class="cls-2" d="M79.15,58.65c-.33.16-.34.51-.3.9a4,4,0,0,0,.68-.54C79.43,58.85,79.27,58.78,79.15,58.65Z"/><path class="cls-2" d="M76.72,64.26c-.3-.05-.16.24-.33.29C76.47,64.74,76.86,64.51,76.72,64.26Z"/><path class="cls-2" d="M72.1,68.86c-.17-.18-.57.21-.6.54C71.78,69.3,71.91,69.05,72.1,68.86Z"/><path class="cls-2" d="M69.52,70.9c-.14.34-.59.72-.54,1C69.26,71.71,69.66,71.26,69.52,70.9Z"/><path class="cls-2" d="M64.15,74.9c-.29,0-.46.22-.71.27C63.5,75.36,64.08,75.25,64.15,74.9Z"/><path class="cls-2" d="M57.31,76.5c0,.15-.11.33-.1.49a.45.45,0,0,0,.36-.22C57.42,76.69,57.46,76.57,57.31,76.5Z"/><path class="cls-2" d="M42.37,55.18c-.18-.25-.59.21-.78,0C41.56,55.63,42.1,55.3,42.37,55.18Z"/><path class="cls-2" d="M41.5,55.3c0-.22-.15-.21-.33,0C41.25,55.38,41.36,55.39,41.5,55.3Z"/><path class="cls-2" d="M45.37,78.67a.26.26,0,0,0,0,.33,2.55,2.55,0,0,0-1,0,1.76,1.76,0,0,0,1.27.15C45.42,79,45.51,78.84,45.37,78.67Z"/><path class="cls-2" d="M43.5,77.54c0,.19-.33.35-.15.56C43.61,78.13,43.67,77.77,43.5,77.54Z"/><path class="cls-2" d="M43.89,78.81c.08-.09-.08-.22-.15-.34a.64.64,0,0,0-.3.35C43.57,79,43.77,78.59,43.89,78.81Z"/><path class="cls-2" d="M29.44,76c-.15-.21-.36,0-.51.09a.38.38,0,0,0,.38,0C29.28,76.06,29.39,76,29.44,76Z"/><path class="cls-2" d="M28.26,76.32c-.09-.18-.46.08-.5.17A.32.32,0,0,0,28.26,76.32Z"/><path class="cls-2" d="M27.47,75.48A4.41,4.41,0,0,0,26,74.81c-.05.32-.3.11-.59.17A10.58,10.58,0,0,0,27.47,75.48Z"/><path class="cls-2" d="M25.76,74.8c-.11-.26-.44-.13-.67-.18A.47.47,0,0,0,25.76,74.8Z"/><path class="cls-2" d="M24.88,74.5c-.21-.13-.34-.37-.62-.38C24.18,74.33,24.51,74.66,24.88,74.5Z"/><path class="cls-2" d="M24.54,73.77a1,1,0,0,1-.37-.52c-.28.14-.39.08-.44.47C24,73.38,24.22,73.85,24.54,73.77Z"/><path class="cls-2" d="M22.33,76.6c.22-.2-.24-.32-.43-.28,0,.2.11.23.17.34S22.26,76.46,22.33,76.6Z"/><path class="cls-2" d="M21.22,73c.07,0,.07-.05.07-.1l0-.18c-.31.15-.67-.42-1.2-.32a.16.16,0,0,1-.06.2c.33,0,.54.21.91.19.07.43-.24.1-.39.34s.46-.15.45.1C21.1,73.23,21,72.71,21.22,73Z"/><path class="cls-2" d="M21.3,76.08a1.81,1.81,0,0,0-1.18-.41A2.91,2.91,0,0,0,21.3,76.08Z"/><path class="cls-2" d="M19.79,72.29c-.18-.1.08-.45-.16-.61-.07.27-.2.36-.5.26C19.23,72.2,19.52,72.24,19.79,72.29Z"/><path class="cls-2" d="M19.18,72.38c-.15-.29-.52-.28-.84-.34C18.61,72.39,18.8,72.26,19.18,72.38Z"/><path class="cls-2" d="M17,70.67c-.13,0,0,.28-.16.29.31.29,1,.06,1.13.6C18.36,71,17.12,71.13,17,70.67Z"/><path class="cls-2" d="M17.87,71.84c-.23-.42-.83-.37-1.31-.5C16.76,71.81,17.41,71.71,17.87,71.84Z"/><path class="cls-2" d="M16.44,72c.24-.24-.38-.28-.58-.33C15.92,71.94,16.35,71.76,16.44,72Z"/><path class="cls-2" d="M16.49,71.53c-.23-.3-.37-.69-.95-.57C16,71,16,71.53,16.49,71.53Z"/><path class="cls-2" d="M15.38,70c.09.47-.44.4-.54.12s.34-.14.54-.12c.08-.33-.34-.13-.29-.44a3.16,3.16,0,0,1-2,.11c-.3.34.91.36,1.11.18-.22.31.32.4-.06.55a16.08,16.08,0,0,0,2.17-.1C16.2,69.94,15.82,69.94,15.38,70Z"/><path class="cls-2" d="M13.62,69.29c.12,0,.07-.23.08-.37-.16-.08-.46,0-.56-.18-.09.06-.09.21-.27.18.05.13.14.23.2.37C13.32,69.29,13.49,68.9,13.62,69.29Z"/><path class="cls-2" d="M13.41,68.38c-.17-.11-.61-.34-.55.08C13.14,68.54,13.19,68.37,13.41,68.38Z"/><path class="cls-2" d="M12.58,68.63c.31-.12-.19-.24-.1-.47-.21.13-.17.19-.46.07C12,68.53,12.44,68.46,12.58,68.63Z"/><path class="cls-2" d="M26.36,29.4c-.16-.07-.08-.31-.32-.31,0,.14-.09.14-.07.29.33-.21.6,1,.39.1.36-.21.61-.55,1.13-.55,0-.33.08-.29.3-.15,0-.09-.15-.1-.16-.2s.2.15.39.1c-.16-.26-.06-.29-.18-.82-.21,0-.17.35-.21.56-.34-.19-.3.09-.38.21-.61-.25-.78.29-1.07.19,0,.34.49.22.54.14C26.76,29.3,26.3,29,26.36,29.4Z"/><path class="cls-2" d="M31.08,28.76a.75.75,0,0,0,.59-.44c-.21,0-.2-.17-.38-.19C31.55,28.6,31.12,28.47,31.08,28.76Z"/><path class="cls-2" d="M32,28.13c.11-.08.06-.23-.15-.28,0-.09.13,0,.22,0,0-.22-.08-.3-.08-.48.23-.16.52-.23.59-.59.67.32.59-.33,1-.38.29.42-.31.44-.07.83.29-.47.81-.27,1-1,.28.15.49.29.45-.15a.55.55,0,0,1,.29.65c.17.1.11-.11.23-.08-.2-.12-.09-.45-.37-.51.45.09.43-.47.74-.58-.18.45-.24.82-.3.89.38.3.43-.52.59-.78.21.26.42,0,.52-.1s-.14-.11-.14-.21.08,0,.08-.12c.07.08.07.21.21.24.32-.18.48-.59.76-.83.06,0,.07.1.14.13-.26.32-.24.57-.46.88.42.08.54-.29.88-.31,0-.25-.15,0-.29-.13s.06-.18.08-.27c.28.05.33.4.5.29s-.08-.2-.06-.33-.06.06-.08.12-.42-.51-.28-.13c-.41-.15-.23-.44-.06-.48-.08.27.34.05.35.38.16,0,0-.4.16-.39s.07.43,0,.53.27.23.28.43c.21.05.19-.27.43-.18.14.24,0,.25,0,.55.33.24.2-.25.5-.05,0-.23-.22,0-.42-.21.12,0,.2-.15.37-.12-.3-.13-.3-.3-.41-.57,0-.06.08,0,.08-.12.23,0,0,.27.27.29,0-.44,1-.65,1.14-.19,0-.25.16-.21,0-.45.28.07.25.3.46.41-.21,0-.26.36-.51.34.25.19.68,0,.85-.21.13.08.07.24.25.3.05-.24.11-.5.5-.29-.14-.3,0-.33-.23-.6.24.19.18-.24.49-.08-.31-.37.2-.31.06-.59.34.05,0,.41.28.5,0-.29.1-.35.24-.31a2.1,2.1,0,0,1,.15.42c-.28.29-.74.25-.86.66.19.18.1-.2.33.06.06-.42.34-.45.61-.44s.55.08.65-.27c.68.43,1.2-.51,1.62.12a2,2,0,0,1,.42,0c-.08-.48.24-.2.36-.36.05.1,0,.22.13.3-.09-.32.13-.39.2-.12.24-.48.7.07,1-.22-.13-.16,0-.29,0-.39.09.14-.06.31,0,.45.33.28.52-.2.78-.23.07.48.37.51.38.2.08.23.12.07.19.25,0-.35.21-.28.4-.2a1.09,1.09,0,0,0,.3.07c.09,0,.17,0,.24-.17.21.75.64-.37.78.35-.07-.07-.15,0-.22.05,0,.36.3-.13.48,0s.28.55.34.17c.06-.13.06.22.1.3.19-.21.31.05.52-.2a1.91,1.91,0,0,0,.84.54,5.9,5.9,0,0,1,.67.44c.22.18.44.36.66.52a13.7,13.7,0,0,1,1.37,1.15A17.43,17.43,0,0,1,57,28.67c.22.24.5.44.7.69l.6.73A17.85,17.85,0,0,1,61.65,36a15.43,15.43,0,0,1,.7,6.44,19.36,19.36,0,0,1-2.22,7.05c-.18,0-.26-.14-.36-.26.78-.45.45-1.5,1.14-2-.22-.16-.17-.18-.2-.32.12,0,0,.07.14.16s-.2-.35.15-.32c-.11-.14-.32-.11-.44-.25.69,0,.74-.59.56-1.07.18-.26.46-.52.22-.91a.27.27,0,0,1,.2,0c-.16-.56.4-1.11,0-1.51.19,0,.24,0,.28,0s-.17,0-.26,0a.77.77,0,0,0,.2-.81.72.72,0,0,1,.18-.82c-.41-.08,0-.35,0-.49s-.44-.4-.09-.51c-.28-.19-.29-.38,0-.6-.12-.1-.26.08-.38,0s.22-.17.27-.11c-.33-.11,0-.27-.24-.38a.33.33,0,0,1,.26,0c-.36-.14-.15-.33-.34-.47.47-.08.05,0,.25-.18-.17,0-.32,0-.32-.08a.91.91,0,0,0,.31-.12c-.49,0,.19-.4-.4-.51a.51.51,0,0,1,.31-.09c-.22-.24-.21-.93-.5-.91-.08-.12.28-.39-.21-.38.24-.22.33-.51,0-.45a3.46,3.46,0,0,0-.12-.67,4.14,4.14,0,0,0-.31-.59c-.22-.39-.37-.81-.58-1.27-.1,0-.15.07-.24.09.11-.17,0-.15.16-.38-.32-.1-.37-.45-.53-.75a1.14,1.14,0,0,0-.8-.67c.05-.11.14-.16.19-.27-.19-.17-.47-.26-.56-.54-.13.14-.48.57-.75.51.13-.24.28-.3.25-.49s.42-.21.26,0c.3-.14.18-.45,0-.21.08-.61-.64-.37-.54-1-.33.27-.44,0-.33-.4-.1,0-.14.11-.17.2-.12-.39-.49-.48-.61-.9-.09.07-.13.17-.22.23a1.56,1.56,0,0,0-.59-.55.61.61,0,0,1-.36-.63c-.05,0-.06.12-.08.18-.34-.37-.83-.53-1-1a.59.59,0,0,1-.54-.18c-.17-.15-.34-.36-.5-.41-.12.11-.08.29-.2.4s-.07,0-.08,0c.3-.64-.14-.41-.2-.65-.13.32.07.11,0,.3s-.14.15-.19.19c.08-.84-.32-.52-.44-.86-.11.13-.05.3-.15.43s0-.1-.08,0a.7.7,0,0,1,.12-.3c0-.18-.1-.19-.19,0s0,.27-.06.38.09-.07.09.16-.11-.13-.22.2c0-.39-.1-.23-.15-.32,0-.31.11.11.19-.13-.06-.46.08-.14.15-.29-.13-.5-.18,0-.33-.36-.05.11,0,.27,0,.39s0,0-.05-.08c0,.15,0,.23,0,.26-.13.34-.21.13-.33.48a.48.48,0,0,1,0-.38c-.09,0-.2.51-.27.29s.07-.25.09-.38-.12.14-.11.31-.11-.28-.17-.09c0-.13,0-.25,0-.39-.09.48-.37.52-.41.05-.09,0-.2-.18-.26.2-.17-.51-.29.09-.4-.38,0,.77-.47-.45-.6.19-.24-.13-.41.1-.67-.1-.11-.17.13,0-.06-.25-.1.32-.28.27-.49.21s-.43-.09-.57.12c.09.11.12,0,.2.15s0,.17.08.24c-.18,0-.45-.26-.63-.24,0,.16.09.11.15.16.13.21-.14,0-.08.28-.07-.16-.12-.21-.2-.21.12.69-.54-.11-.61.45a.42.42,0,0,1-.19-.47c-.17-.18-.16.06-.29,0,0,.11.13.18.21.26,0,.28-.08.24-.14.32a.41.41,0,0,1-.09-.37c-.11.3-.42.17-.62.28-.09-.1,0-.26-.22-.32.16.62-.72.55-.8.9-.22-.24-.44-.05-.37-.39-.17,0-.1.16,0,.35-.11.1-.46-.45-.51-.12.17.16.13-.05.26,0a.2.2,0,0,0,.06.18c-.33.1-.85,0-.93.61-.17-.31-.17-.26-.45-.48,0,.22.23.31.39.44.09.54-.52-.07-.47.39-.33-.09-.16-.44-.4-.57,0,.26.19.42.27.64s-.26-.13-.27,0c-.09-.07-.06-.21-.07-.32-.16,0-.25.24-.06.39-.47-.23-.26.1-.69-.19-.08.35-.16.28-.48.3.06.15.28.22.21.46l.35.16c.13-.06-.13-.31.2-.12,0-.11,0-.16-.14-.21.23-.13.8-.61,1,0,.14.09,0-.24.06-.32a.41.41,0,0,1,.2.53c.11,0,.43-.17.13-.35.09-.16.38,0,.33-.39.14.1,0,.33.13.44s.33-.45.52.08c.16.08,0-.23-.06-.25a.39.39,0,0,1,.45,0c0-.11-.12-.18-.13-.29s.17,0,.19-.16a.81.81,0,0,1,.12.29.79.79,0,0,1,.75-.46c.16.12-.08.06,0,.28s.13-.18.36,0c-.06.19-.17.25-.43,0,.17.52-.46.12-.49.5.49,0,.77-.32,1.16-.37,0-.24-.13,0-.24-.18,0-.4.45.4.48,0a2,2,0,0,0-.24,0c-.07-.34.2,0,.13-.34.13.06.11.18.11.3s.07-.13.18,0c-.15-.41.46-.34.74-.31.17.26-.19-.08-.12.17A1.35,1.35,0,0,1,47,27.66c.06.09,0,.21,0,.31.22.28.15-.15.07-.33.13-.11.13.35.32.44.09-.16-.2-.25-.17-.41.21,0,.31-.45.64-.09,0-.45.1-.28.18-.41.11.12.09.24.18.36.08-.27.24-.22.38-.22.08.23-.08.17-.11.2.15.24.26,0,.32-.23.11.13,0,.29.15.43s-.14.06-.08.33a.4.4,0,0,0,.31-.15,1.12,1.12,0,0,0,.22-.36c.13.19,0,.37.09.57.18,0,.36-.1.55.26.05-.4.12,0,.16.05,0-.12,0-.26,0-.37.11.46.38-.19.37.4.19-.1.35.47.51.12,0,.38.17,0,.15.51.13-.36.11,0,.26-.36a2.71,2.71,0,0,1,0,.41c.14.09.3.13.44.21s.3.3.38.57c.07-.14.17-.26.11-.3a1.38,1.38,0,0,0,.32.48.84.84,0,0,0,.53.29c.16-.08,0,.38.1.4s.06-.16.13-.22c0,.19.07.42.38.28l-.11.41c.57.09.82.65,1.08,1.11.06,0,.09-.09.15-.12.34.86,1.14,1.23,1.37,2,.36-.16.42.47.5.75s.34.12.12.4l.25-.07c-.36.32.29.13,0,.47.47.09.17.75.63.92l-.22.17c.48.3.17.87.62,1.2-.36.29.3.34,0,.61.36.06-.09.26.22.33-.26.37,0,.65.07,1a6.64,6.64,0,0,0,0,1.18l0,.62a1.8,1.8,0,0,1-.17.62l.22.13c.06,0-.11,0-.19,0a3.07,3.07,0,0,1,0,.66,2.6,2.6,0,0,0,0,.7h-.28c0,.1.43.17.17.25s0-.06-.15-.12-.07.14.12.2a34.24,34.24,0,0,1-2.47,5.65l-.41.75c-.12.17-.23.35-.35.53s-.21.4-.33.56-.26.31-.38.47a7.66,7.66,0,0,1-1.7,1.62l0,.19a.83.83,0,0,0-.57.33c-.17.17-.35.34-.64.2,0,.09,0,.52-.13.14,0,.19-.16.37-.34.18l0,.26c-.16,0-.35,0-.48.23-.45-.09-.81.16-1.27.25a3.26,3.26,0,0,1-.68.13,1.26,1.26,0,0,1-.71-.24l-.11.24c-.16-.31-.43-.21-.52.08,0-.11,0-.21-.06-.32-.09.47-.18.16-.25,0-.28.37-.6.23-.95.21a.44.44,0,0,1,0-.32c-.08-.07-.15.44-.27.15,0,0,0,.13,0,.19s-.15-.16-.28.12a.27.27,0,0,1,0-.25c-.12.15-.34.3-.51.25,0-.34.12-.15.23-.33a7.38,7.38,0,0,1-1.17.48l-.07-.36c.09-.27-.12.13,0,.27-.23.27-.37.15-.65.31,0-.28-.22-.23,0-.41-.08-.12-.2.34-.3-.1-.2.22,0,.22,0,.29-.29.26-.42-.08-.74.22,0-.1.07-.15.13-.22s-.16.09-.15-.2c0,.36-.14.1-.34.34-.38-.66-1.41.46-1.66-.43-.29.5-.6.26-.84.29.15-.38.31,0,.51-.18,0-.13-.08-.1-.08-.25.24-.08.55-.36.76-.39-.24.62.46.17.58.11a1,1,0,0,0-1.43,0c0-.11.13-.17.21-.25-.22,0-.61-.15-.84.37-.17.07,0-.26,0-.36-.51.22-.73.09-1.33.34A2,2,0,0,0,36,55.18a1.1,1.1,0,0,0-1.23,0c-.47-.57-2.41.11-2.69-1.2-.27.81-.71,0-1.09.66-.13-.17-.75.3-.63-.19a1.64,1.64,0,0,1-1.95-1.39,1,1,0,0,0-.54.36c-.14,0-.17-.19-.09-.45-.29.13-.27,0-.37-.11-.28.22-.32.11-.59.29-.07.18.17,0,.15.17a1.31,1.31,0,0,1-1.2-1.49c-.39.26-.6.17-.69-.07a3.4,3.4,0,0,1-2.45-.17l.18-.41c-.3.29-.44-.09-.71-.1a.43.43,0,0,1,.21-.14,2.91,2.91,0,0,0-1.49-.8,4,4,0,0,0-.72-.69A2.25,2.25,0,0,0,19,49c-.12-.38-1-.85-1.39-1.12-.67-.43-1.09-.89-1.82-1.29,0,.17-.2.2-.36.32-.22-.11-.07-.25-.29-.36-.09.25.16.32-.08.5.46.17-.1.68.37.68.15.09-.2.27-.24.39a4.11,4.11,0,0,1,.38.87,11,11,0,0,0-1-.58,9,9,0,0,0,.91,1.88,6.52,6.52,0,0,0,.69.9,4.24,4.24,0,0,0,.93.69c.13.08.11.23.05.41a.91.91,0,0,0,.26-.19c.06.12.22.2.35.29-.41.48.71.45,1.19.43-.12.23-.39.17-.64.17.14.07.09.33-.1.45-.36,0-.18-.21-.6-.14-.1.2.47,0,.22.26.2.09.25-.08.42,0s.12.07.1.16c-.18.12-.46.06-.63.17s-.05-.08-.13-.09c.39-.12-.09-.3-.25-.42.05-.14.16-.15.2-.29-.4-.25-1,0-1.3-.3.19-.15.56.08.81.08-.07-.17-.36-.43-.58-.2,0-.53-.75-.71-1.25-1-.06.37.56.44.84.63-.62.12-1.11-.36-.91-.83-.46-.24-.89-.54-.81-1a4.16,4.16,0,0,1-1.24-1.71,13.81,13.81,0,0,0-.91-2c-.27.35,0,.64-.42,1a1,1,0,0,1-.05,1.08c.11.09.18,0,.28.07-.36.34.1.52,0,.81s-.29,0-.48-.08c-.16.38.22.64.23,1s-.31,0-.41.18c-.05.55.53.62.83,1.11-.27.28-.75-.23-1-.39a.49.49,0,0,1-.08.37c.08,0,.11-.07.16-.13.24.19,0,.42.41.4-.06.15-.18.12-.23.29A2.21,2.21,0,0,1,12,53.54a.35.35,0,0,0,.47-.2.61.61,0,0,1,.39.22,3.37,3.37,0,0,1-.6.54,2.06,2.06,0,0,0-.72-.58,1.49,1.49,0,0,0-.89-.27,4.63,4.63,0,0,1-1-2.34c-.43.36-.45-.33-.49-.68.24-.16.08.36.3.44.18-.42-.46-.67-.63-1,.1-.3.35.1.27-.26-.48,0-.63-1-.59-1.55-.44-.4-.35-.93-.56-1.55-.44,0-.07.56-.09.76a3.23,3.23,0,0,1-.34-2.81c-.57-.72.37-2.88-.69-3.31.24-.56-.22-.9.1-1.32.22,0,.06.35.35.37-.07-1.33-.25-2.8-1-3.23-.29.22-.66.71-.91.45C4.81,37.8,4.55,39,3.71,39c.23.44-.07,1.07.32,1.26.09-.11,0-.26,0-.4.27-.12.15.08.24.36a.75.75,0,0,0-.39.66c-.2.24-.33.11-.42-.2-.09.23-.07.47.1.51-.53.51-.4,1.92-.15,2.86-.6,1,.18,2.21.73,3.2L4,47.43c-.76-.37-.8-1.44-1.25-2-.18.19,0,.39-.26.57a15.71,15.71,0,0,1,.7,2.12,9.84,9.84,0,0,0,.66,2c0,.06-.12,0-.17.12a3.83,3.83,0,0,0-1-1.62c-.16.27.1.51,0,.78.25-.15.35.09.25.45a.57.57,0,0,1,.51-.06c-.1.6.46,1.66.9,1.33.25.16-.37.17-.09.46-.11.08-.21-.31-.42-.1,0,.37.61.55.75.39.15.21-.27.27-.32.53.3.41.41.07.66.29s-.11.35-.2.24c0,.39.35.19.46.24s0,.47-.2.58c-.3-.13-.3-.32-.5-.49a.49.49,0,0,0,.71.51c.26.53.49,1,1.11,1.19,0,.45-.33.08-.42.33-.22-.28-.39-.57-.59-.85-.13.38-.37.47-.73.23a.28.28,0,0,0,.33.34c-.27.15.13.39-.18.61.51.3.65.75.94,1.26-.11.18-.49-.24-.29-.49-.08-.07-.1,0-.12,0L5,56.31c-.09.42.28.6.52.85-.16.26-.47.2-.63.46.32,0,.22.1.57.29,0,.33-.18.31-.22.55.19.14.26.06.39.09,0,.26-.21.13-.19.46a7.24,7.24,0,0,1,.82,1.22c-.14.31-.24-.08-.6-.13,0,.29.44.3.31.64.09-.05.28,0,.32-.09a4.37,4.37,0,0,0,1,1.42A5.51,5.51,0,0,1,8.4,63.33c.11,0,.1-.16.12-.27a.86.86,0,0,1,.56.23c-.31.42,0,.66.34.88s.87.33,1,.61c-.82.45-1.12-.26-1.79-.51,0,.38.62.4.34.76l.57.09c0,.21-.08.24-.11.37-.12-.15-.47-.12-.47-.37-.15.26-.24,0-.49.11-.17.56.94.12.75.7.48,0,1,0,1.43,0,0,.33-.17.33-.39.33-.09.39.25.41.36.63.1-.16.27-.21.57-.13,0-.15-.29-.11-.18-.4a.59.59,0,0,1,.46.51l.84.06c-.2.33-.31.11,0,.46.09.35-.35.12-.28.44.51-.36.64,0,1.29,0a9.6,9.6,0,0,1,.66,1,2.89,2.89,0,0,1,1.54,0c.1.33-.38.1-.44.28.47.37,1.48.07,2-.11-.34-.48-1,.06-1.43-.08a.25.25,0,0,1,.17-.28c0-.2-.49-.07-.44.1-.06-.73-1.87-.29-1.93-1.34a2.15,2.15,0,0,1,2,.89c.89-.38,1.5.24,2.16.66a2.66,2.66,0,0,0-1,.62c.3-.09.35.11.62,0,0,.88.82.2.87,1a4.39,4.39,0,0,1,1,.22c-.07-.19.15-.15.15-.29.18,0,.27.19.53.1.08.36-.28.28-.42.16-.13.26.65.38.8.14.18.17.52.1.5.54.26.22.92-.12,1.08.23,0,.43-.52.52-.88.71.39.21.84-.12,1.27.29.05.32-.08.3.16.41.3-.09-.27-.28,0-.37a.8.8,0,0,0-.48-.25c.11-.32.14-.27-.14-.42,0-.11.14-.11.24-.14s.06.46.24.49.23-.1.23-.23c.22,0,.32.24.49.33,0,.19-.1.22-.24.15s0-.12,0-.26c-.13.14-.31.25-.27.51,1.24-.42,1.87,0,2.82,0,0,.11.06.23,0,.28a1.66,1.66,0,0,1,1.23,0c-.11.31-.75.14-.81.32,0-.32-.21-.26-.08,0a4.44,4.44,0,0,1,1.78.47c0,.48-.68-.05-.89.36.21.1.22.26.46,0,.53.69,2.27.39,3,.61.09.23-.56.09-.33.4a.87.87,0,0,1,.84-.22c-.14-.13-.25-.3-.45-.3,0-.07.05-.11,0-.2.42,0,.53.53,1.06.24.06.15,0,.22,0,.37.38-.17.55.12.86.1a.25.25,0,0,1-.07.32c.09.14.33-.07.36.22.15,0,.13-.13.1-.23a8.67,8.67,0,0,0,1.37.51c.46.11.92.18,1.46.27,0,.16,0,.26-.24.32.16.09.38,0,.53.13.33-.07,0-.37.28-.44.18.33.48.32.83.16.12.18-.06.25.11.44.14-.1.05-.3.19-.4.22.44.28,0,.73.08.13.17,0,.25.12.43a.25.25,0,0,0,0-.32c.41-.09,1.1.53,1,.94.61-.09-.36-.48.08-.77.2.06.1.21.33.42.33-.17.6.15.82-.29.26.05.57.05.58.45l.37-.25c-.15-.37-.13.25-.28-.12.25-.44,1.06,0,1.64-.18-.13.24-.11.46-.4.5.36.42.57-.4,1-.38.21.45.55.14.86,0,.29.39.67.26,1,.19.06.29-.33.07-.46.26.1.21-.22.36-.14.56.38-.34.88-.35,1.21-.74.09.13.25,0,.48.18.11.39-.74,0-.3.48-.21.23-.36-.11-.58.12.16.32.73-.15.67.27.22-.2.44-.09.78-.29,0,.52.37,0,.68.35.41-.36.78-.25,1.17-.46,0-.26-.31-.46-.5-.27,0-.44.59-.18.83-.16a.4.4,0,0,1-.2.43c0,.21.22.22.24.52,0-.57.38-.15.71-.55-.15-.33-.3.05-.44-.2.21,0,.42-.26.63,0,.06.12-.11,0-.19.18.09.13.27.07.19.2.24.19.07-.41.32-.07-.08-.21-.21-.41,0-.63.31,0,0,.21.26.37.17-.16.1-.3.06-.45s.21.07.31-.08c.35.26-.17.56.09.83.06-.18.17-.35.12-.52.2-.29.43.26.63-.15.25.13.18.28.34.42.27-.28.56-.13.84-.11.11-.45.6-.36.94-.41.19.1-.31.3,0,.38.24-.43.58-.29,1-.4.24-.18-.17-.27,0-.45.36-.13.13.36.46.45.17-.05.23-.12.22-.29.77.59,1.22-.59,1.94-.37.11-.48.27-.45.62-.81.11,0,.26.19.49.07.16.29-.33.27-.42.5.45.09.67-.25.88-.55.35,0,.25.2.52.39.23-.16.44,0,.44-.39l.33.15c-.21-.28.4-.66.81-.35,0-.51.28-.39.63-.44.17-.31-.06,0-.22-.19.09-.21.29-.12.42-.22.36.19.19.25.18.48a1,1,0,0,1,1,.1c0,.1-.09.14-.17.13.14.21.68-.15.94-.26-.73.16-.79-.3-1.47-.15.38-.73.83.09,1.23-.23-.13-.24-.7-.28-.75-.56.26.15.65-.1.93.12a8.88,8.88,0,0,0,0-.9c.14.45.42.27.75.35s-.1.43.23.46c0-.24.06-.27-.1-.52.15-.09.48,0,.18-.24a1.36,1.36,0,0,1,.69,0c.1.17-.54.3-.23.61.24-.36,1.38-1.63,1.49-.86.18-.09.2-.46.49-.37-.08-.67.78-.67.85-1.45.34.28.53-.17.62.21.25,0,0-.37.15-.63.44-.26.93-.45,1.1-1.07.27.24.54-.12.42-.33.36.14.38-.16.66-.13-.18-.11-.26-.05-.53-.23a.84.84,0,0,1,.76-.12c.31-.18-.11-.39.52-.42,0-.09-.2-.1-.16-.28a1,1,0,0,1-.78.4,6.94,6.94,0,0,0,1.08-.94c.07,0,.09.1.18.1-.08.24-.54.33-.31.63.4-.08.24-.67.85-.71,0-.13,0-.26.1-.28a.24.24,0,0,0-.27-.18c0-.36.41-.39.47-.73.26-.07.23.13.45.09.06-.29-.32-.12-.08-.36.29-.06.12.32.36.08,0-.2-.17-.12-.18-.26,1.32-.22,1.4-1.59,2.17-2,.17,0,.09.29.22.34.31-.19.09-.82.71-.75a.25.25,0,0,0-.28-.16c-.1-.24.09-.23,0-.43.19-.06.19.1.21.24.25,0,.21-.3.4-.38,0-.1-.17-.06-.28-.07-.09-.22.16-.18.14-.35.09,0,.12.19.29.14l-.06-.34c.21-.07.22.13.45,0A8.66,8.66,0,0,1,78,61.32l-.26,0c.1-.13,0-.43.17-.47s.19.09.23.23c.33-.22.41-.94.4-1.14.28.06.42,0,.38-.34-.38.14-.23-.1-.26-.31-.18.55-.64.54-.84,1.13.07.12.08,0,.18,0,.16.26-.27.11-.11.37a1.93,1.93,0,0,0-.69.12c.61-.45.71-1.52,1.33-1.74,0-.07-.11-.07-.13-.16,0-.27.18.17.36,0-.26-.59.18-.75.45-1-.26-.26-.12-.47.08-.66.18.2.29.51.6.48,0,.2-.26.43,0,.56.07-.23.13-.21.4-.2-.2-.23-.06-.34-.23-.49,0-.23.33-.3.2-.61.52,0,.58-.61.59-1.1.35.16.42-.06.29-.49a.24.24,0,0,1,.26.2c.34-.31.12-.89.41-1.22-.07-.15-.3.05-.34-.15s.4-.1.15-.35a.25.25,0,0,1,.32.07c.13-.17-.33-.12-.05-.37s.33-.11.4,0c0-.36.5-.78.18-1,.18-.13.24.07.44-.11-.37-.14,0-.34,0-.33.09-.45-.34-.75.17-1.11-.33-.2,0-.65,0-.94.1,0,.17.14.32,0-.34-.31.14-.5-.16-.93-.23-.16-.43.23-.33.38-.08.09-.19-.36-.12-.44-.26-.2-.16.25-.24.33s-.17-.17-.25-.28.5-.24.2-.6c.18-.12.36-.23.47-.06.28-.18,0-.49.35-.65-.15-.1-.38-.08-.31-.34A2.07,2.07,0,0,1,83.83,49c.1-.2.28-.38.4-.58-.1-.12-.35-.21-.11-.37-.09-.09-.21,0-.29-.14-.11-.33.18-.13.41-.37-.53-.07-.36-1.21.21-1.25-.31-.06.06-.28-.22-.51-.26.17,0,.44-.26.61-.23,0,.11-.55.17-.77a.55.55,0,0,1-.32-.32c-.12-.18.22-.12.25,0,.14-.21-.28-.29-.43-.14.06.17-.13.28.1.48-.14,0-.27,0-.41.05-.12-.32.34-.55.18-.88.26,0,.63.56.76.13-.35,0-.17-.12-.28-.38.38,0,.14.25.41-.21-.24-.06-.32-.09-.4-.39.5,0-.11-.51.35-.75,0,.79.34,1.49-.14,2.32.49-.25.07.63.59.59.15-.09.1-.21.26-.29-.39-.2,0-.7.28-.78-.38.14-.29-.36-.68-.18,0-.18-.14-.39.07-.53s-.09.53.3.11c.27.18-.19.25.08.43.12-.12.22,0,.34-.15-.37-.46,0-.53.26-.59-.52-.08-.08-.9-.16-1.34-.23-.16-.17,0-.34.17-.38-.49.09-1.2-.29-1.46.17-.26.29.06.45,0a3,3,0,0,1-.12,1.08.41.41,0,0,0,.51.06c-.12-.11-.05-.19,0-.28-.08,0-.16-.08-.25,0,.42-.35.14-1.41-.26-1.67.65.2.32-.49.78-.65a.3.3,0,0,1-.06-.36c-.34-.13-.07.32-.26.41s-.44-.29-.82-.64c.35-.31.36.29.63.29.25-.35,0-.27-.18-.63-.15.12-.3.05-.45.07-.09-.16.2-.32-.06-.48-.26.29.28.59-.2.88a1.49,1.49,0,0,1,.44,1c-.16.11-.11-.32-.12-.42-.23-.13-.24.35,0,.27-1.24.07-.19-1.93-.62-3-.09.11-.17.21-.26.14-.18.16.2.31-.06.47s-.42-.47-.13-.66c-.29.15-.72-.38-.43-.64.06-.09.32.37.18.52.37-.11.37.12.7.17.14-.3.24-.22.35-.56.19.48-.09.78.41,1.36.3-.3.31,0,.51-.43-.21,0-.42.29-.64-.12a3.52,3.52,0,0,0-.07-1.37c-.11.19-.24.26-.37.16a1.84,1.84,0,0,0,0,.62c-.18,0-.32-.26-.42-.39.07-.14.16-.08.26,0,.13-.4-.38-.07-.31-.52.19-.05.39.1.58,0-.53-.43-.16-1.4-.71-1.85.14-.12.31,0,.42-.26-.17-.23,0-.5-.4-.7a.61.61,0,0,1-.35.33c-.17-.29-.12-.62-.4-.89.21-.2.77.09.48.46.16-.18.4,0,.55-.15-.5-.2-.39-.54-.8-1-.22.2.19.29,0,.48-.31,0-.14-.39-.44-.54.07-.15.19-.1.27-.26-.71,0-.16-.78-.56-1.06.41-.3.44.43.74.39,0-.08-.06-.13-.11-.18.06-.33.29.11.34-.22-.24-.2-.12-.61-.42-.4-.32-.16,0-.48-.15-.67.15-.1.41,0,.31.2.41-.17-.56-.76,0-1l-.5-.29c0,.2-.16.19-.24.29-.23-.21,0-.29.11-.47-.62-.24-.29-.77-.33-1.56-.49-.25-.27-1.32-.81-1.77-.28.11.06.29,0,.51-.35,0-.57-.6-.69-.89.24-.24.18.38.43.18,0-.25.06-.45.18-.53a9.17,9.17,0,0,0-1-.31c-.22-.24.19-.36.19-.62s-.61-.46-.21-.59c-.56-.31-.67-.85-.9-1.32,0-.36.46,0,.46-.33-.37-.25-.27.29-.61.1s.11-.44.16-.72c-.21-.09-.15-.34-.3-.47.18-.05.29-.19.29-.5-.09,0-.28.07-.28-.08-.23,0,.1.19-.06.37-.3,0-.22-.3-.3-.47s0,.34,0,.39a1.38,1.38,0,0,1-.41.18c-.15-.21,0-.35-.33-.28.08-.41.23-.06.41-.18,0-.34-.26-.13-.45-.12-.26-.21-.3-.57-.52-.8.15-.13.43,0,.59-.15-.09-.31.16-.86-.25-1,.15-.44.28-.62-.08-1.14,0,.22.15.42-.05.56-.28-.06-.33-.28-.44-.46s-.14.24-.39.13c.19.19.23.79.51.65-.09.12-.17.26-.4.21s.18-.35-.34-.34c-.09-.32.3,0,.22-.34-.28.28-.49,0-.54-.36-.29,0-.18.25,0,.37-.17,0-.19-.15-.36-.15.07-.15-.07-.56.13-.54,0-.12-.64-.23-.25-.42,0-.25-.65.1-.72-.28,0-.13.23-.05.37-.05-.18-.29-.33-1-.71-.82-.11,0-.36-.45,0-.37a1.76,1.76,0,0,0-2-.26c-.13-.09-.19-.25-.37-.28,0-.34.46-.14.35-.54.4,0,.28.16.38.37.37.07.57,0,.55-.35-.09,0-.07.11-.09.18-.23-.06-.48-.09-.47-.38s.16.13.37,0c.06-.31-.38-.13-.3-.47-.51.36-.74-.48-.88-1.05-.32,0-.73.22-.43.56.14-.32.27,0,.38.19s-.16,0-.19-.1c-.11.29.52.62.68.94a6.46,6.46,0,0,1-1.56-1.13,10,10,0,0,0-1.64-1.19c0-.11.16-.1.26-.12a.33.33,0,0,0-.48-.23c.17-.39-.17-.21-.25-.53s.52,0,.32-.31c-.44.19-.39-.09-.71-.48-.35.13-.65.15-.73-.38-.37.11-.44-.19-.8-.08C67.34,7.3,65.85,7.12,65,6.08c-.1.26-.52.31-.46-.09-.34,0-.34.16-.42.29a.34.34,0,0,1-.26-.14c.12-.15.13-.36.47-.4-.27-.41-.34.42-.6-.15-.31.35-.36.15-.75,0-.07-.19.16-.25.4-.3-.8,0-1.68-.74-2.45-.23-.37,0-.31-.2-.52-.34s.33-.29.14-.56c-.33.07-.33.24-.34.42-.33-.18-.31,0-.68,0-.1-.39.53-.64.87-.51-.11-.14,0-.21,0-.12a1.6,1.6,0,0,0-2-.73c-.23-.25.46-.21.16-.48-.38.25-1-.37-1.56-.48-.18.06-.12.19-.32.25,0-.11.16-.18,0-.32s-.12.06-.39.18c-.05-.09.15-.14.06-.25-.29-.32-.7-.17-.71.13a.2.2,0,0,0-.23-.11c-.06-.1.12-.15.22-.22-.75-.16-1.9-.82-2.48-.42-.71-.46-.57,0-1-.24-.48.48-.73.38-1.32.63.18.18.38.12.56.22-.26.21-.48-.13-.74,0-.08-.09.09-.17.18-.25-.52,0-1-.32-1.56-.37-.08-.08.09-.16.18-.25-.25,0-.5-.13-.76.05-.27.66-1.9-.16-2.69.37a18.14,18.14,0,0,1,2.85.14c-.33.15-.66,0-1,0-.11.31.42,0,.57.16-.17.12-.32.27-.48.4-.15-.09-.07-.2-.24-.3-.66.22-.59.8-1.4.63-.09-.22.5-.32.68-.51,0-.15-.23-.28-.1-.44-.16.11-.5.92-1.16.68-.13-.12-.07-.25.13-.4-.36-.19-.57.61-1.08.5-.35-.14.18-.37-.22-.49-.08.05,0,.09,0,.12s-.42.09-.27.42c-.13,0-.65,0-.49.29-.18,0-.33.17-.53,0s.43-.56.27-.77a5.09,5.09,0,0,0-.64.45c-.23-.08-.07-.25-.37-.31a9,9,0,0,1-1.37.29c-.19-.12.27-.14.32-.4-.64-.06-.57.82-1.25.48-.13.1-.18.48-.36.38-.12.22.22-.05.34.16l-.16.25c-.48-.11-.83.26-1.32.14-.12-.31.45-.53.75-.3a.91.91,0,0,1,.5-.42c-.23.09-.91-.19-1.13.35-.35-.1,0-.39-.38-.49-.14.52-1,.76-1.64,1-.24-.16.2-.14.2-.33-.3.1-.23-.15-.55-.22-.28.32-.69.29-1,.66-.62-.17-.44.27-1,.95.27-.15.49-.41.82-.4.1-.14,0-.19-.09-.24A.57.57,0,0,1,35.82,4c.19,0-.15.24-.22.22.17.15,1,.44,1.17,0,.33.26,1.11,0,1.51-.31.23.13.19.3.37,0a3.19,3.19,0,0,0,2.26-.33c.13.42.83-.09.7.37.09-.16.34-.2.63-.33-.15-.1-.26,0-.41-.11.14-.09.28-.13.42-.22a.23.23,0,0,1,0,.33c.23.16.4,0,.64.13.12-.12,0-.18.1-.28.2.14.4.26.53,0,.13.07.28.22.39.11.23.09-.33.33.06.38.19-.57,1.57-.5,1.89-.18.29.12.07-.2.29-.28s.15,0,.22-.09c.31.13.12.29.42.42.48-.43,1.47-.21,2.22,0,.18-.24.37-.16.55-.31-.39-.29-.31.22-.71,0,.19-.2.14-.14-.07-.45.52-.4,1-.17,1.11.16-.22.22-.41-.31-.64,0,.36,0,.51.39.23.58.49,0,1,.21,1.46.24-.16.35-.08.21.28.4A.76.76,0,0,1,50.46,4c-.14.12.18.26,0,.38.28-.08.55.12.83.11.2-.16-.08-.35-.27-.53.45-.07.86.15,1.33-.11.08-.17-.06-.35.07-.51.47,0,0,.33.33.49.06.14-.14,0-.26.16.39.5,1.43.38,1.86,1,.68-.29,1.22.09,1.81.22.12.35-.48.19-.6.53.38.33.65-.31.6.31a.56.56,0,0,0,.17-.61,2.59,2.59,0,0,1,1.45.52c.3-.42.73-.09,1.06.08,0,.1-.13.13-.23.19s-.19-.18-.28-.29-.15.08-.13.15L58,6.12c.2.23.58,0,.69.43-.22.11-.32-.1-.5-.1-.19.3.35.29.46.42-.62.36.49.27.76.6.05-.2.27-.51.55-.41-.3.22,0,.37-.08.73a.15.15,0,0,1,.21,0c0-.37.42-.14.62-.4.16.12.53.7,1,.56.15.26-.13.31-.23.46.27.31.58.48.68.75l.36-.11-.13-.34c-.39.21-.42-.27-.64-.39.41-.1.51.39.92.31-.39.69.53.6.76,1.21-.12-.17-.36-.12-.47-.35-.16.27.35.43.51.53.14-.12.2-.27.37-.37.35.11,0,.38,0,.56.14-.07.18,0,.22.13.21-.33.47-.17.53.35.06-.46.15-.07.6-.22.11.49-.55,0-.35.53.35-.33.48-.09.78-.25.1.42-.47.05-.5.28.26.18.31.21.66.06.09.38-.26,0-.32.24.19.68.66.32,1.18.5,0,.21-.12.29,0,.55.38-.07.41.31.72.34,0,.18-.24.24-.31.4s-.15-.06-.26-.05c-.08-.23.16-.2.23-.3-.32-.18-.54-.06-.81-.41.14.24.21.58.49.64,0,.27-.27-.19-.25.12a3.3,3.3,0,0,0-.57-.61c-.1,0,0,.18-.15.2-.28,0,.08-.23-.07-.43a.24.24,0,0,1-.3-.11c-.46.64-.4-.49-1-.25-.09-.26.26-.3,0-.45-.29.11-.23.46-.52.57,0,.25.29.14.34.37.09,0,0-.17,0-.28.3-.07.37.19.51.34-.1.21-.22,0-.41.18-.23-.09-.37-.31-.67-.29-.1-.26.24-.3,0-.45-.82.59-1.53-.72-2.33-1,0-.17.38-.19.36-.39.66.4,1.14,1,1.78,1.34.21-.13-.11-.34-.3-.19,0-.29-.29-.37.07-.48a3.69,3.69,0,0,1-.58-.23c0-.17.31-.2.15-.5-.34.21-.35.08-.6-.11s.19-.24,0-.48A1.61,1.61,0,0,0,61,9.66c0-.1,0-.26.08-.32s-.13.3.23.12c-.24-.4-.69-.37-1-.75l-.59.21c-.06-.21,0-.37-.16-.63-.41.28,0,.46,0,.69-.3.11-.27-.6-.65-.33-.21-.34.44-.38.15-.75-.09,0,0,.13,0,.2a2.91,2.91,0,0,1-1.48-.57c-.35.18,0,.58.23.61-.28,0-.7.54-.85.19s.29,0,.29-.24-.3.07-.35-.24c-.21.18-.07.32-.45.32-.11-.17-.08-.29.11-.37-.29-.36-.45.4-.71,0-.06-.21.45-.25.21-.53-.29.07-.25.23-.44.35s-.2,0-.27-.06.41-.13.39-.44c-.35,0-.22-.22-.51-.56a4.13,4.13,0,0,0-1.85-.21c.47-.37-1.1-.49-1.58-.66.06-.34.66.09,1-.21-.56-.43-1.15.24-1.53-.21-.08.08.06.18.12.27-.22.29-.39,0-.6.22-.51-.65-1.26-.09-1.59-.57-.67.26-1.07,0-1.58.43.26,0,.09.08.29.24-.75.47-1-.23-1.11-.75-.17.27,0,.51-.09.78a4.31,4.31,0,0,1-.94-.11c-.13-.16.35-.18.47-.36.09.14-1.12-.13-1.32,0-.17,0-.22-.37,0-.25-.06-.31-.28,0-.42.07s.09.16.17.23c-.55.13-1.57-.45-2.28.06l-.42-.23c-.11.15-.3,0-.39.21-.77-.52-1.14.33-1.9-.11a1.83,1.83,0,0,1-1.89.26c.3-.31.27-.45.51-.7-.7.23-1.17.9-1.61.65.21.5-.14.91.25,1.41-.32.05-.69,0-1,.07.24.51,1.18-.26,1.41.39-.07.19-.31-.09-.45-.09.1.39-.48.22-.57.64a.53.53,0,0,0-.49-.49c.15.28,0,.42-.19.7-.28-.14-.76-.29-.61.05-.28-.05-.26-.3-.5-.18-.21-.17-.05-.16,0-.37a1,1,0,0,0-.7.41c-.29-.1,0-.48-.28-.58-.06.14.09.64-.25.49,0,.15,0,.35.25.37-.25.28-.23.21-.19.59s-.38-.2-.39,0,.25.16.39.23c-.12.12-.35,0-.44.22-.19-.09.07-.42-.23-.45.06.28-.34.3-.31.08-.11.6-.74.69-1.42.55.06.14,0,.34.07.48.28,0,.19,0,.49.16.08-.17-.08-.2-.21-.25.38-.33,1-.24,1.53-.32-.28.39-.89.14-1.13.54a2,2,0,0,1,.71,0c-.13.24-.5.07-.49.56-.18-.09-.08-.34-.35-.38,0,.15-.14.14-.16.31-.18,0-.13-.17-.1-.31-.17-.05-.16.2-.37.07.13.34-.31.34-.15.67-.39,0-.21-.37-.53-.43a.66.66,0,0,1-.85.19c-.2.38-.4,0-.59.36-.24-.13.11-.16.06-.34-.42,0-.54.35-.92.36a.89.89,0,0,0,.16.57.46.46,0,0,0-.27.63c-.28,0,0-.29-.3-.26s-.2.31-.47.22c-.09.25.12.3-.06.42-.28-.08,0-.5-.16-.65s.45.2.37-.17c-.21-.21-.57.06-.66.35-.25,0-.2-.17-.41-.19-.1.34-.42.87-.66.68-.12,0,0,.15.06.19-.14.15-.25.34-.6.19,0,.27-.17.21-.14.47.08-.3.65.09.63-.35.31.17.2.4.63.34,0,.53-.35.2-.44.22,0,.38.31.07.47.3,0-.23.07-.29.27-.19,0-.27.18-.21,0-.41-.23,0-.25.21-.4-.11,0-.16.36.08.35-.16.22.15.07.35.39.27-.35-.29.2-.12.35-.24.08,0,.24.38.05.35.11-.09.66.06.79-.21.49.34.57-.14,1,.2.17-.25,0-.46.26-.62.1.06,0,.23,0,.36.42.21.49-.12.77-.11,0-.19-.1-.22-.22-.16-.05-.35.33-.21.15-.48.05,0,.28.31.32.1.23.15.07.16,0,.36.36,0,.47-.37,1-.13-.25-.62.53.06.46-.55.16.37.29,0,.47.24-.15.15-.29.32-.63.14.12.55-.57.44-1,.38a.72.72,0,0,1,.08.63c.11-.81,1.84,0,1.7-1.28.34-.13.6-.38,1-.36,0-.19-.09-.22-.22-.17l.11-.5a.36.36,0,0,1,.37,0c-.06.26-.33.14-.31.52.23.07.38,0,.61,0l.09-.33a.47.47,0,0,1,.29-.07c.18.07.12.27,0,.47.44-.09-.08-.65.45-.65a.28.28,0,0,0-.2-.26c.06-.15.14-.25.26-.27,0,.6.92.34,1.3.43-.23.29-1.16.32-.91.73-.31.16-.72.12-1,.34.14.34.42-.09.63,0-.17.27-.23.14-.24.53-.38-.42-.32.1-.7-.35-.14.33.09.48.28.64-.12.2-.33-.15-.47-.18,0,.2-.18.19-.18.47-.23,0-.18-.19-.38-.23,0,.39-.11.08-.36.14-.13.29-.43.28-.55.59-.27,0-.12-.26-.27-.35.18-.23.77-.21.46-.63-.15,0-.15.32-.25.44a.51.51,0,0,0-.23-.17c-.07.37-.1.41-.4.31-.16.35.27.38.12.73,0,.06-.09.06-.11.14-.25-.05-.19-.28-.27-.44-.28-.18-.25.14-.5,0,0,.13,0,.17.14.21-.19.3-.79,0-.75.62-.62.13-.83.6-1.49.49,0,.36-.24.26-.36.4.12.29.22.3.2.56a1.65,1.65,0,0,1,.63.19c-.09-.33-.12-.2-.12-.54.15-.2.47-.13.48-.53.25.12.07.51.17.72s.41-.33.58,0c.35-.1.4-.68,1-.45-.07.27-.31.29-.4.54.15,0,.23-.16.5,0-.1-.25-.06-.28.18-.11.09-.59.79-.23,1.05-.57.26,0,.12.23.11.37.25.13.25-.14.44-.1a1.44,1.44,0,0,0-.69-.41.62.62,0,0,1-.12-.3,1.4,1.4,0,0,1,.36-.13c.12.08,0,.28.29.28.06-.16,0-.24,0-.36s.16,0,.18-.1c.26.17,0,.18.11.38-.06.22-.4,0-.39.29.79-.29,1.54-.64,2.3-1A15.89,15.89,0,0,1,37.61,14c-.14-.53.49-.5.75-.19,0-.29-.28-.48-.28-.77.24-.24.42.24.64-.06.09.06,0,.18,0,.28.28,0,.43-.41.74-.37,0,.77.75.11,1.34.44.17-.18-.11-.23-.24-.32.44-.11.27,0,.72,0,0-.12-.21-.15-.15-.28a.34.34,0,0,1,.36,0,.53.53,0,0,1,.09-.42c.18-.27.27.26.43-.13.12.09.11.23,0,.39.69,0,.64.21,1.37-.2a.27.27,0,0,1,0,.32c.42-.47,1-.21,1.47-.55,0,.08.09.16,0,.25.2,0,.36-.26.52-.55.2.09.22.22.07.38.63-.3,1.38.38,2-.35.23.13,0,.3.21.43-.1.13-.23-.08-.32.15.5-.13,1.13-.59,1.8-.29.08-.28-.44-.21-.12-.52.31.28.54.51.79.42.18-.39-.23,0-.39-.21.21-.27.42-.09.63-.16a1.91,1.91,0,0,1-.13.63c.55-.06,1-.51,1.63-.22,0,.09-.09.17,0,.26s.18.06.25.21c.23-.21.13-.24.38-.32a.67.67,0,0,0,.16.42,1.63,1.63,0,0,1,.82.09c.1.18-.2.19-.24.08.14.43.66.06.89-.28.25.23,0,.34-.21.48.37.08.87-.38,1.19-.06.09.13-.25.3-.24.06a.56.56,0,0,0,.41.53c-.08,0-.32,0-.16.21-.12,0-.17-.21-.33,0,.1.28.33.11.46.29,0-.18.2-.45.33-.22.09-.1-.07-.08-.09-.23a1.21,1.21,0,0,0,.75-.28c.19.24-.21.28-.05.52.21-.15.47-.06.56-.35a3.84,3.84,0,0,0,1.16.57c.06-.13.07-.3.32-.34,0,.41-.33.46,0,.73-.23.17-.28-.06-.43-.07-.11.31.46.16.58.36.06-.09,0-.23.18-.27.1.2.24.16.22.53.23,0,.18-.24.42-.28s0,.64.49.32c.07.17-.1.23,0,.43-.19.1-.26,0-.35-.11.42.86,1.69,1,2.37,1.67a.87.87,0,0,1-.44.32c.11.17.37.1.41.35.19-.05.23-.2.29-.34.19.12.36.42.59.63a.72.72,0,0,0,.91.18c-.06.32-.26.07-.38.26a1.94,1.94,0,0,1,.45.46c.1,0,.12-.17.24-.22.32.11.28,1,.75.71,0,.19-.15.27-.1.5.16,0,.46-.1.37.24.63-.38.5.68,1.08.61-.11.07,0,.32-.19.35.26.07.6.08.46.57a.42.42,0,0,1,.38,0,.58.58,0,0,0-.12.25c.18-.11.36.08.14.14.23,0,.38.19.46.48.16-.23.27-.16.4,0,0,.1-.15.08-.25.1.09.25.32.36.4.61-.35.06-.11-.24-.44-.06,0,.16.05.34.21.39,0,.1-.21.07-.33.09-.1-.14.1-.55-.27-.45.19.11-.24.38,0,.47-.18.24-.31.12-.45,0,.06-.17.23-.18.35-.27,0-.26-.27-.08-.44,0-.11-.12-.3-.15-.23-.42.19.28.47-.1.58.15.24-.1-.12-.29.29-.26s-.32.24,0,.23.14-.08.22-.33c.07,0,.13.06.12.15.05-.33-.66-.51-.77-.91-.19.33-.18-.08-.4.13a1.07,1.07,0,0,0,.64.3c-.53.67-.87-.07-1.21-.07,0-.47.44-.46.51-.85-.3.29-.15-.31-.51-.16a.36.36,0,0,1,0,.63c.1-.49-.33,0-.38-.49,0-.28.29-.24.29-.52l-.38.06c0,.11,0,.23-.11.26-.5-.1-.77-.45-1.22-.59-.09.32.17.23.2.41-.34,0-.8-.16-.56-.63.07.11.2.15.45,0s-.13-.21.09-.34c-.27-.14-.78.1-.58-.49-.24.14-.23-.06-.29-.16-.06.09-.21.1-.23.22-.14-.39-.85-.42-.73-.92a4.31,4.31,0,0,0-.61-.19,1,1,0,0,1,.21-.24c-.07-.21-.24.13-.37.13,0-.28.17-.4.35-.53-.12-.21-.42-.25-.28-.64-.18.18-.17.49-.48.59.14.33.39-.41.53.05a.39.39,0,0,1-.43.32c-.36-.1-.35-.83-.75-.88.06-.38.24-.09.44-.17,0-.24-.29-.16-.47-.16a.57.57,0,0,0,0,.27c-.14,0-.07-.22-.22,0-.1-.39-.66.08-.62-.58a.24.24,0,0,1-.43-.21c-.38.42-.76.19-.95-.13-.12,0-.1.14-.19.19-.14-.31-.46-.26-.3-.65-.15.09-.31.17-.46.27-.23-.31.24-.37.14-.63-.3.18-.47.06-.63-.15-.09.19-.35.32-.48.5,0-.28.39-.4.25-.72-.2.59-.77.36-1,0-.27,0-.34.41-.56.2.07-.21.31-.4,0-.4,0-.2.17-.34.37-.47,0-.07,0-.05-.09,0l-.06-.16c-.2.12-.13.31-.32.43s-.14-.35-.37-.59c-.24.21-.35-.18-.56-.05.13.39.34.34.57.24a.8.8,0,0,0,.14.49c-.2-.11-.23.18-.42-.15-.24.08.07.27-.17.35-.15-.35-.62-.36-1-.51-.08.15.26.25.37.2,0,.5-.47.35-.67.19-.1-.33.34,0,.23-.21s-.22.18-.44,0c.18-.27,0-.29-.28-.31s-.61,0-.76-.3c-.13.25-.51.38-.77.65,0-.56-.77-.11-.87.07-.08-.09-.16-.16-.11-.26-.07.21-.28,0-.47.29-.19-.46-.34,0-.67.17-.08-.14,0-.3-.19-.43-.57.39-.94.06-1.53.4-.1-.15,0-.32-.2-.29.09.51-.29.27-.51,0,.18.36-.08.69-.38.58-.15-.29.3,0,.18-.35-.11-.1-.18,0-.29-.14,0,.17.12.3-.08.33s.09-.23,0-.31c-.35-.11-.41.1-.33.32-.22.15-.1-.39-.32-.27.11.3-.08.44-.26.59-.18-.34-.14,0-.41-.21.07.26-.17.31-.35.23s.08-.1,0-.32c0,.41-.84.21-.54.76-.23-.12-.22.46-.45.33s.09-.23.11-.56c-.21-.05-.33.13-.54.09.2.77-.55.66-.66.86-.08-.22.1-.4.15-.53.12,0,.11.14.09.23.25.06.07-.23.28-.38-.34.05-.38.16-.83-.22-.14.21.13.27.11.43-.45-.31-1.34.55-1.79.58,0,.07-.26.4,0,.51-.1.36-.55,0-.33.44-.2-.09-.14-.31-.22-.46s.19,0,.3.07c0-.29-.28-.31,0-.54-.24.1-.19.28-.37.59a.44.44,0,0,0-.2-.18c0,.26.16.09.24.38-.07.16-.31,0-.31.35a9,9,0,0,0,2.19-.56c.25,0,0,.27.25.31s.05-.18.09-.38c.28.17.09.51,0,.81-.38.11-1-.23-1.33.36-.12.07-.36-.1-.47,0,.25.2.2.18-.11.2-.09.18.11.23.09.38-.55-.28-.45.09-.74.21-.18-.06-.14-.22-.36-.25.16.23.11.45-.14.43s.09-.34-.18-.34c0,.15-.08.13-.17.1a.48.48,0,0,1,0,.34,2.19,2.19,0,0,1-1.08,0c.2.51-.35,0-.37.42-.21-.16.12-.16,0-.39-.15.1-.27.24-.5.2,0,.1.05.44-.12.36.24.25.16.25.11.61.26-.26.62,0,.73-.35.3.16,0,.25.27.36a.52.52,0,0,0-.17-.56c0-.13.18-.12.19-.32.23.35.38,0,.48-.12.25.18-.05.3.08.61.19,0,.14-.14.12-.36a.7.7,0,0,0,.6.11,1,1,0,0,1,0-.58c.15.15.2.37.47.46,0-.22.23-.09.33-.16,0,.15.2.24.26.37a2.84,2.84,0,0,1,1.37-.5c.07-.48.56-.11.69-.45.71.43.93-.77,1.55-.12,0-.25.14-.13.15-.33.2.18.31.15.47.23-.11.21-.34,0-.25.44-.06-.35-.16-.11-.34-.14,0,.28.13.16.26.17-.08.35-.33.26-.52.33s.1-.26.19-.21c-.19-.28-.48.21-.71.21.19.18.17-.12.36.06-.41.07-.42.42-.72.62-.19-.09.14-.37-.15-.42l-.05.3a.91.91,0,0,0-.91.63c.07-.42-.27-.15-.51-.11.06.16,0,.34.19.26,0,.56-.44-.07-.49.37-.21-.11-.24-.3-.32-.48-.16,0-.12.44-.06.53s-.68-.1-.48.34c-.07,0-.42,0-.43-.13a.77.77,0,0,1-.88.63c.13-.23.14-.17.12-.57-.2-.05-.39-.06-.6-.11-.07.13.36.32.13.29.11.32.18-.1.24-.13a.39.39,0,0,1-.5.58c-.27.14-.07,1-.56.8l0,.3c-.2,0-.13-.21-.21-.32s-.08.52-.39.4.05-.23,0-.39c-.35.41-.6.87-1.16.67-.12.1-.28.14-.24.46.16,0,.24.1.23.23-.34-.15-.5.47-1,.36,0-.19,0-.38.16-.33-.21-.13-.62.14-.85.26,0,.37.14-.09.39.12,0,.26-.25.18-.23.47A.32.32,0,0,1,33,26c.21.07.15-.08.3.1a.25.25,0,0,0-.07.21c-.48-.25-.46-.11-.83-.11-.07-.34.36,0,.3-.37-.24-.13-.23.06-.46-.07.23.15,0,.56-.14.65s-.07-.16-.08-.25c-.29-.17-.22.12-.46,0,0,.15.26.13.31.25-.13.37-.59.3-.75.62.2.26.15-.18.38-.12.06,0,.07.1.15.13-.27,0-.17.27-.29.52.23.28.34.06.22-.24.28,0,.07.43.31.25C31.89,27.78,31.67,28,32,28.13ZM47.11,23.8c0-.27.22,0,.34,0C47.39,24,47.26,23.93,47.11,23.8ZM54,27.45c-.2.23-.22-.06-.3.35-.19.1-.25-.05-.3-.25.16-.21.1,0,.33-.39,0,.1,0,.27,0,.23s.05-.16.11-.23C53.89,27.3,54.12,27,54,27.45ZM13.09,54c-.26-.1-.47.06-.35-.3C12.91,53.64,13.2,53.78,13.09,54ZM7.14,57.49a1.91,1.91,0,0,0-1-.58c.17-.28-.05-.38-.3-.47a1.61,1.61,0,0,1,.4-.69c-.39-.31-.52.06-.71.28-.13-.7.46-.86.92-.63-.23.73.81.85.85,1.42-.13.36-.27-.2-.42,0C7.14,57,7.36,57.38,7.14,57.49ZM39.05,77.18c.27-.16.41.18.65.12A.44.44,0,0,1,39.05,77.18Zm19.56-1.4c.17.18.58,0,.57.31C58.92,75.86,58.53,76.21,58.61,75.78Zm13.44-7.84c-.16.08-.13.37-.46.27C71.56,68,71.92,67.69,72.05,67.94Zm-30.32-65a1.64,1.64,0,0,1-1,0C41,2.9,41.63,2.61,41.73,2.91Zm6.68,3.27c0,.29-1.24.31-1.06-.11C47.72,6.36,48.05,5.86,48.41,6.18Zm-21,6.69c0-.12-.1-.19,0-.36.16.06.2,0,.35,0C27.68,12.76,27.64,13,27.39,12.87Zm26.8,2.83a3.85,3.85,0,0,1-1-.28A.81.81,0,0,1,54.19,15.7ZM45,15.55c-.16,0-.53.15-.58-.09C44.54,15.43,44.92,15.24,45,15.55Zm-4.78,1c0,.08.06.56-.18.34S40.07,16.45,40.2,16.57Zm-7.51,9.84c-.13,0,0,.11,0,.23-.36-.24-.1.33-.46.09C32.16,26.37,32.56,26.23,32.69,26.41Zm6.2-2.08c-.09.07-.08.3-.3.16C38.57,24.12,38.85,24.32,38.89,24.33Zm5.87-.45c.08.23-.13.31-.34.13C44.44,23.73,44.61,23.82,44.76,23.88Zm1-.22c-.06.18-.38.15-.49-.13C45.45,23.65,45.5,23.38,45.75,23.66Zm-14.4-7.73c.32-.15.5-.51.9-.55A.77.77,0,0,1,31.35,15.93ZM49.16,27.44c0,.27-.09.27-.21.08S49.07,27.25,49.16,27.44Zm-6.65-7.2c-.14,0-.18.29-.4.15C42.15,20.18,42.41,19.93,42.51,20.24ZM30.73,15c-.17-.12-.3.3-.41-.05C30.48,14.9,30.66,14.57,30.73,15Zm.21-.36c.28.25.19,0,.42,0,0,.14.22.12.22.24-.24.11-.31-.13-.36.23L31,15C31,14.84,30.89,14.77,30.94,14.61Zm1.32.17c-.14.12-.17.41-.47.27C31.78,14.69,32,14.68,32.26,14.78Zm8.82,2.74c.05-.13.11-.22.22-.22-.12.27.25.78-.11.72C41,17.78,41.32,17.65,41.08,17.52Zm-7.44-3.73-.07.33L33.34,14C33.32,13.74,33.51,13.82,33.64,13.79Zm-4.95-1.6c-.32-.32-.17.15-.45.13C28,12,28.81,11.69,28.69,12.19ZM42,17c.37.13.54-.52.9,0-.1-.37.22-.45.44-.33-.41.21-.19.62-.5,1-.35-.44-.14.1-.4-.29-.19.17-.52.61-.72.35.06,0,.27-.13.13-.19a.38.38,0,0,1-.49.05c0-.25.21-.15.4,0C41.84,17.36,42.13,17.35,42,17Zm6.25,6.34c.05.32-.14.27-.24.24C48,23.35,48.14,23.25,48.26,23.37Zm-7.57-6.79.28.17c0,.18-.1.28-.23.22C40.9,16.78,40.53,16.78,40.69,16.58Zm-10-4.93c0,.33-.46-.08-.43.31-.25-.06-.21-.4-.48-.24C29.91,11.14,30.38,11.77,30.71,11.65Zm4.7,1.58c-.06.24-.09.55-.37.39C35.18,13.52,35.15,13.09,35.41,13.23Zm-3.15-1.08c-.36-.21-.08-.89.26-.81a.45.45,0,0,1,0,.53C32.32,11.59,32.24,11.88,32.26,12.15Zm12.83,5c-.09-.31-.21-.08-.23.18-.12,0-.19,0-.24-.2-.22.39-.66,0-.87.45-.19-.11-.16-.54-.28-.12-.21-.13-.38-.62-.07-.51,0,.09,0,.19.08.24-.19-.69.41-.64.65-.91l.32.24c.16-.09.26-.48.52-.24a.56.56,0,0,1-.63.53c.06.08,0,.12-.06.15.16,0,.38.2.51.12.13-.39.3-.7.6-.43C45,16.76,45.19,17,45.09,17.2Zm-9.42-4.31c0-.16-.25-.17-.17-.35.23.21.13-.24.36,0-.06.26.08.43,0,.72l-.23-.1ZM50.82,28.1c0,.2-.1.41-.11.16S50.81,27.8,50.82,28.1ZM50,23.76c0,.42-.34-.19-.24-.1S49.92,23.5,50,23.76ZM34,11.07l-.1.33c-.09-.05-.23-.07-.22-.18S33.69,10.9,34,11.07Zm2.59.29c-.06.14,0,.22.19.27,0,.13-.09.27-.13.41A4.48,4.48,0,0,1,36.1,12C36.3,11.83,36.44,11.54,36.63,11.36Zm-2.55-.46a.94.94,0,0,0-.2-.54c.16.06.17-.19.38,0-.23.61.48,0,.52.38-.3-.06-.6.55-.86.14Zm3.89.88c-.27-.39-.37.12-.67.06C37.2,11.26,37.93,11.26,38,11.78Zm.47-.06c.22,0,.22.35.31.16s-.15-.26-.11-.44l.31.15c0,.13-.12.28.06.32-.06.2-.12.39-.3.32,0-.1,0-.2-.09-.23-.15.19,0,.26-.07.43C38.22,12.32,38.48,12,38.44,11.72Zm2.06,1c-.13.33-.35.41-.68.2A.52.52,0,0,1,40.5,12.69Zm-5.65-2.24c.2-.27.64,0,.83-.33-.11.36-.28.37-.61.51C35.08,10.53,35,10.49,34.85,10.45Zm11.22,5.87-.13.28c-.18-.24-.3-.22-.37.07l-.18-.16C45.57,16.25,45.84,16.34,46.07,16.32Zm-9.83-6c-.23-.06-.32.15-.56.05C35.7,10.13,36.17,10.07,36.24,10.35Zm15,14c-.14.13-.24-.19-.38-.08C50.92,23.82,51.13,24.12,51.23,24.32ZM34.3,9.31c-.1-.12,0-.32,0-.49a.73.73,0,0,1,.44-.21c.14.14.13.36.19.55.05-.54.37-.54.63-.71.43.3.63.14,1.11.16,0,.38-.77.4-1.17.48a.26.26,0,0,1,.19.27c-.34.15-.47.1-.41-.16-.22.19-.89.77-1.39.32C34.21,9.55,34,9.37,34.3,9.31Zm4.14,1.46c0,.33,0,.53-.38.49C38.43,11.12,38.05,10.87,38.44,10.77ZM35.38,9.63c.17,0,.26-.1.47,0C35.77,9.9,35.35,10,35.38,9.63Zm11.33,6.58c.08,0,.16,0,.22-.11l.27.3c.27-.32.38-.06.71-.29-.08.13.09.25,0,.38-.21-.23-.38-.08-.55,0a.59.59,0,0,1,0,.64c-.14-.09-.28-.09-.44-.27.09-.24.25-.09.35-.36C47.1,16.27,46.78,16.46,46.71,16.21Zm.18.29c-.11.22-.27.18-.47-.05C46.55,16.28,46.73,16.46,46.89,16.5Zm-9.83-7c.3,0,0,.29.26.31a.31.31,0,0,1-.45.18A.43.43,0,0,1,37.06,9.47Zm14.8,16.79c-.08.14-.16.29-.17.09S51.83,26.2,51.86,26.26ZM36.52,9.14c.16,0,.14.17.3.22-.06.23-.22.22-.43.11Zm6.57,2.78a.54.54,0,0,1,.24.26c-.22.13-.4.36-.71.14C42.72,12,43,12.28,43.09,11.92ZM37.71,9.27c.39.11.57-.34,1-.24-.33.07-.46.63-.86.48C37.85,9.4,37.7,9.37,37.71,9.27Zm1.85.79.15-.31c.13.12.31.21.32.36C39.82,9.93,39.78,10.25,39.56,10.06ZM37.17,8.74c0-.19-.52-.16-.31-.42s.1.24.46.29L37.15,9c-.13-.11-.44.1-.41-.17C36.85,8.73,37,8.82,37.17,8.74Zm11.27,7.65c-.21-.13-.15.28-.4.09C48.12,16.21,48.45,16,48.44,16.39ZM41.2,9.76c-.2.1-.38.28-.62.25C40.7,9.65,41,9.76,41.2,9.76ZM52.58,26.94c-.07.07-.16.21-.14,0S52.62,26.66,52.58,26.94Zm-9.3-16.43c-.24,0-.43.12-.69,0C42.69,10.17,43.25,10.31,43.28,10.51Zm6.15,5.84a1.41,1.41,0,0,1,.62.17C49.86,16.78,49.35,16.82,49.43,16.35ZM39,6.37c-.19.31.06.06.21.2-.07.3-.34,0-.43.21.32.26.49.06.76.16.09.09.45.42.07.44.06-.27-.27,0-.42-.2-.13.44-.53.1-.72.36a.61.61,0,0,0-.73-.13c-.06.14.2.15.17.28-.65-.12-.45-.49-.4-1.08.18,0,.11.19.17.28.07-.14.25.05.32-.06a.48.48,0,0,1-.28-.23c.14-.28.4-.12.2-.41.16-.05.29-.17.53,0-.05.15-.25.15-.14.24A2,2,0,0,1,39,6.37Zm2.51,1.5c-.06-.22.17-.22.31-.36.2.34.51,0,.84.08-.21.43.29-.06.47.29-.24.19-.59,0-.85.11-.41.47-.07,1.16-.63,1.1C41.93,8.77,42.15,7.9,41.51,7.87ZM53.37,26.94c0,.15-.21.21-.19.4.18-.11.21-.32.33-.46,0,.14,0,.1,0,.23-.26.4-.37.46-.59.82a1.43,1.43,0,0,0-.06-.79C53,27,53.25,26.8,53.37,26.94ZM50.5,16.43c-.08.26-.22.31-.4.16A.84.84,0,0,1,50.5,16.43ZM37.3,6.22c-.07.16.24.17.13.36S37,6.24,37.3,6.22Zm5.61,2.16-.39.6c-.1-.06-.17,0-.28-.07C42.1,8.65,42.57,8.27,42.91,8.38Zm7.94,8.2c.11.16.22.09.11.33-.08-.13-.17.08-.25-.15Zm-3.61-5.14c.34.27-.17.5-.37.34C47,11.53,47.13,11.69,47.24,11.44ZM39.67,6.7c.13,0,.47.13.32.36C39.79,7,39.59,6.88,39.67,6.7Zm11.48,9.52s-.06.08,0,.13c.08-.11.16-.11.23-.05-.17.19-.32.24-.46.09C51,16.31,51.08,16.15,51.15,16.22Zm0-1.22c-.15-.23-.34.21-.49,0C50.76,14.76,51.15,14.68,51.1,15ZM36.25,3.75c0,.31.31,0,.17-.13.23.07.21.24.22.39-.32,0-.19.2-.65.26A.61.61,0,0,1,36.25,3.75ZM54.59,28.21c-.17.15-.12-.07-.17-.13C54.59,27.93,54.65,28,54.59,28.21ZM50.8,11.54c-.14.18-.27.1-.39-.09C50.55,11.27,50.68,11.35,50.8,11.54Zm3.45,6.26c.13.25-.19.51-.23.18C54.18,17.86,54.09,17.76,54.25,17.8Zm-2.51-5.88a.5.5,0,0,1,.81.32c-.19-.39-.48,0-.72-.06C51.94,12,51.68,12.15,51.74,11.92Zm3.75,17.41c-.14,0-.29,0-.24-.31C55.43,29,55.67,29,55.49,29.33ZM42.91,3c-.17-.07-.71,0-.67-.25S43,2.75,42.91,3Zm6.5,2.94c.23.33.48.2.7.41-.26.23-.51-.15-.78.29-.14-.18-.28,0-.42-.26A1.41,1.41,0,0,0,49.41,5.93Zm6.84,10.22c.11.24.11.44-.15.55-.12-.09-.05-.42-.29-.44C56,16,56.05,16.33,56.25,16.15ZM48.53,2.86c-.29.23-.56.44-.85.37C48,3,48.24,2.62,48.53,2.86Zm5.58,6.38c-.18.15-.31.06-.43-.15C53.86,8.94,54,9,54.11,9.24ZM52.52,6.5c-.29.14-.55.26-.78,0C52,6.32,52.26,6.43,52.52,6.5ZM54.1,7.94c.31.31.73,0,1.06.21-.32.4-.68.14-1.18.09-.09.08-.08.22-.21,0A.53.53,0,0,1,54.1,7.94Zm3.67,5.87a.91.91,0,0,1-.83-.12A.72.72,0,0,1,57.77,13.81ZM50.4,2.34c-.22.15-.43.09-.65.11.16-.21,0-.43.19-.63C50.28,2,50.12,2.16,50.4,2.34Zm-1.3.22c-.13-.33-.33-.19-.65-.4.55-.05,1-.74,1.32-.22C49.29,2,49.32,2.3,49.1,2.56Zm1.35.36c-.15-.27-.74.06-.63-.28.3,0,.6-.08.87.22-.16.1-.12.21.06.32a.93.93,0,0,1-.8.1C50.07,3.16,50.58,3.17,50.45,2.92Zm4.65,4.3c-.15-.16-.39,0-.52-.23C54.77,6.82,55.23,7.05,55.1,7.22Zm-.82-.15c.23-.11-.16-.33.16-.43C54.72,6.81,54.52,7.21,54.28,7.07Zm1.27,1.48c.22-.18.37-.05.56-.1.1.32.29.3.44.41-.31,0-.19.08-.48.25,0-.27-.11-.4-.42-.2A.55.55,0,0,1,55.55,8.55Zm3.93,12c-.25.17-.34,0-.48.21V20.6s-.08,0-.07-.05C59.14,20.34,59.42,20.3,59.48,20.55ZM57.42,30.71c0,.12.13.06,0,.24S57.23,30.8,57.42,30.71ZM51.19,2.63a1.08,1.08,0,0,1-.71-.22C50.7,2.08,51.28,2.53,51.19,2.63ZM59.8,18.16a.42.42,0,0,1-.47-.32A.4.4,0,0,1,59.8,18.16ZM54.23,3.43c-.15-.1-.11.08-.27.15-.32-.11-.29-.48-.76-.25-.07.21.44.23.16.48a.63.63,0,0,1-.56-.48C53.26,3,54.14,3,54.23,3.43Zm5.43,12c.15.19.55-.06.56.38-.27.1-.4-.06-.65,0C59.51,15.6,59.53,15.47,59.66,15.39Zm-2-7a.61.61,0,0,1,.3.37C57.65,8.93,57.37,8.46,57.62,8.34ZM55.38,3.71a.4.4,0,0,0-.21.22.72.72,0,0,1-.41-.34A.49.49,0,0,1,55.38,3.71Zm3.46,5.18c-.19-.05-.53.27-.63,0A.55.55,0,0,1,58.84,8.89Zm1.27,1.75c-.35.17-.27-.2-.53.1a.63.63,0,0,1,0-.37Q60,10.18,60.11,10.64Zm-1.19-.71c.12.35.55,0,.62.44A.41.41,0,0,1,58.92,9.93ZM56.27,4.66c-.29.28-.41,0-.58-.24C56,4.25,56.08,4.57,56.27,4.66Zm3.32,4.82c-.26.16-.34-.08-.51-.1C59.19,9.1,59.51,9.19,59.59,9.48Zm.91-.14c-.42.1-.55.06-.73.36-.21-.09-.06-.26-.08-.46.25-.14.38,0,.57,0,0-.1-.22-.14-.1-.26.42,0,.49.34.63.66-.1.06-.12.18-.31.2C60.31,9.58,60.52,9.52,60.5,9.34Zm.56,1.06a1.76,1.76,0,0,1-1.2-.44C60.16,9.43,60.76,10,61.06,10.4ZM56.54,2.7a3.77,3.77,0,0,1-1.19-.29A1.29,1.29,0,0,1,56.54,2.7Zm1.69,2.49c-.08.15-.2.45-.45.19C57.8,5.31,58.09,5,58.23,5.19Zm0-1.55c.36.27-.39.19-.22.4s.48-.13.6.19A1.68,1.68,0,0,1,57.33,4C57.51,3.74,57.88,4,58.18,3.64Zm3,7.66c.55-.17.66.54.33.8A.93.93,0,0,0,61.16,11.3Zm.44-.71-.43.14c0-.1-.09-.23,0-.28C61.22,10.68,61.63,10.21,61.6,10.59ZM60.5,6.68c.13.22-.09.28-.24.38,0-.11-.16-.09-.2-.24Zm-.61-1.81a.5.5,0,0,1-.33.63A.38.38,0,0,1,59.89,4.87Zm1.75,5c.3-.18.44.28.34.45C61.56,10.4,61.8,10.13,61.64,9.83Zm-.53-4.55a.63.63,0,0,0,.25.33c-.38,0-.35-.28-.72,0,0-.42-.31-.21-.51-.53C60.54,5,60.72,5.38,61.11,5.28Zm1.57,1.44c-.21-.59-1.23-.42-1.24-.94C61.82,6,63.05,6.13,62.68,6.72Zm-.39-.18c-.18,0,0,.27-.29.28-.08-.11-.2-.13-.24-.33C62.08,6.54,62.06,6.29,62.29,6.54Zm2.33,1c0,.29.3.12.31.42a.57.57,0,0,1-.53-.18C64.52,7.7,64.51,7.57,64.62,7.51Zm2.3,6.71c-.18-.1-.81-.24-.38-.55C66.51,14,67.1,14,66.92,14.22Zm-.56,8.55c0,.28-.44.36-.41.13C66.13,22.91,66.15,22.74,66.36,22.77ZM67,13.86c-.22.07-.23-.14-.28-.3.19,0,.44-.35.51-.17C67.06,13.49,67.07,13.72,67,13.86Zm.49-.33c.12.33-.36.52-.41.23C67.15,13.65,67.2,13.49,67.47,13.53Zm-.22-3.95c0,.41.4.14.39.49a1.81,1.81,0,0,1-1-.4Zm.54,3.55-.34,0,0-.27C67.7,12.8,67.71,13,67.79,13.13Zm0,1.66c.44-.06.06.33.28.56C67.86,15.31,67.66,15,67.8,14.79Zm.37.72v.34c-.25.09-.61-.1-.35-.29C67.84,15.76,68.12,15.54,68.17,15.51Zm-.75,8.36c-.1-.07,0-.25-.06-.39a3.75,3.75,0,0,1,1.12,1.66c-.49.13-.06-.43-.45-.37,0,.19.08.23-.17.31-.13-.17.14-.26.15-.54-.37,0-.12-.43-.52-.37,0,.14.17.19,0,.46-.19,0-.13-.13-.37-.06,0-.19.41-.29.19-.39s-.15.3-.38.25c-.08-.05-.09-.16-.07-.31S67.31,24,67.42,23.87Zm1-9.76c0,.44.39.39.46.72-.28.09-.27.39-.6.24-.1-.3.17-.3.25-.46-.19,0-.27-.23-.53-.19C67.9,14.16,68.13,14.12,68.38,14.11Zm0-3.48c-.29,0-.61.11-.65-.19C67.92,10.48,68.3,10.33,68.34,10.63Zm0,6.83-.33,0v-.26C68.29,17.19,68.43,17.23,68.39,17.46Zm2.28.15a.21.21,0,0,1,.16.25c-.54-.07-.11-.78-.21-1l-.43,0a1.36,1.36,0,0,0-.82-1.1.91.91,0,0,1-.68.21c.31-.39-.27,0-.26-.4a4.09,4.09,0,0,0,1.28-.1c-.11.69.8.71,1.19,1-.13.05-.44-.09-.44.1.28,0,.39.23.69.25,0-.11-.15-.2,0-.27,0,.31.68.41.41.69-.08-.33-.75-.31-.8.1.36-.3.71.44.58.59C71.21,17.78,70.9,17.19,70.67,17.61Zm.63-.27c.1-.1.4,0,.52.09-.22.05.15.22.06.42C71.53,17.82,71.44,17.56,71.3,17.34Zm-3-6.61a1.57,1.57,0,0,1,.7.65C68.65,11.29,68.12,11.07,68.26,10.73Zm.55,3.32c0-.13-.28,0-.19-.32C68.9,13.53,69,14,68.81,14.05Zm.73.88c-.21,0-.62-.17-.36-.4C69.25,14.73,69.49,14.72,69.54,14.93Zm-.1-3.24a.29.29,0,0,1-.47-.23A.38.38,0,0,1,69.44,11.69Zm-.83,14c-.25.14-.18-.21-.48.06C68.14,25.45,68.7,25.44,68.61,25.68Zm.32.41c-.23.16-.28-.09-.61,0l.09-.23C68.66,25.86,69,25.84,68.93,26.09Zm1.72-9.95c-.14-.07-.62-.22-.34-.44C70.39,15.88,70.65,15.88,70.65,16.14Zm.54-2.25c-.23,0-.38,0-.36-.27C71.06,13.59,71.22,13.65,71.19,13.89Zm.64,4.49c.08.14.22.23.3.37-.29,0-.48.15-.59-.12C71.7,18.63,71.63,18.34,71.83,18.38Zm.34,1.34a.44.44,0,0,0,0,.35H72c0,.05,0,.1-.1.08,0-.43-.26.11-.44.06,0-.16-.21-.16-.1-.43C71.72,19.84,71.88,19.71,72.17,19.72Zm.43-1.29c0,.13,0,.33-.13.35-.09-.3-.54-.27-.43-.74C72.38,18.15,72.28,18.46,72.6,18.43ZM61.22,37.93a.61.61,0,0,1-.51.06c.08-.05.1-.08.11-.11S61.21,37.87,61.22,37.93Zm9-10.12c.18.08.2.25.09.49-.27,0-.69.21-.57-.17C70,28.13,70.21,28.12,70.18,27.81Zm2.66-6.91c-.14-.17,0-.35.16-.42a1,1,0,0,1-.59-1.26,1.4,1.4,0,0,0,1,1c-.19,0-.27.21-.34.4.23-.15.26-.15.44,0,0,.17-.15.16-.22.24.35-.11.17,0,.32.2.1-.29.38,0,.31.21s-.27-.11-.61-.07C73.11,20.92,73.24,20.78,72.84,20.9Zm1.08-7.17c0,.44.67.2.84.32,0,.42-.3.1-.66.24.1-.27-.2-.17-.37-.2C73.71,13.88,73.75,13.75,73.92,13.73Zm-.23,6.38a4.36,4.36,0,0,0,.32.73.8.8,0,0,1-.48-.31C73.67,20.56,73.26,20.12,73.69,20.11Zm1.08-3.94c-.12.11-.55.1-.53-.15C74.39,16.09,74.78,16,74.77,16.17ZM75.48,15c-.28,0-.25-.2-.54-.16,0,.23.16.31-.11.36-.07-.21-.55-.5-.26-.74C74.9,14.57,75.37,14.54,75.48,15ZM74,21.64c-.19.26.42.33.07.46C73.93,22,73.6,21.71,74,21.64Zm1.17-2.41c-.23-.14-.36-.37-.57-.52C74.76,18.62,75.42,19,75.18,19.23Zm.35-3.35a.39.39,0,0,0-.28.06c0-.2-.38-.55-.15-.67C75.12,15.58,75.58,15.51,75.53,15.88Zm-.09,7.82a5.36,5.36,0,0,1-1-1.08c-.08.15-.13.35-.35.29.42-.36,0-.28,0-.71.33.05.42.2.75-.13C74.51,22.79,75.37,23.07,75.44,23.7ZM61.31,39.46c.12-.09-.28-.13,0-.23C61.42,39.28,61.62,39.45,61.31,39.46Zm10.25-8.61c-.16.16-.13.25.09.26-.31.32-.88,0-.76-.29A.63.63,0,0,0,71.56,30.85ZM76.27,17c-.37-.22-.49-.63-.76-.94l.28,0C75.87,16.47,76.19,16.65,76.27,17ZM74.1,25.58c-.07-.23-.46-.59-.17-.81C73.92,25,74.49,25.32,74.1,25.58Zm.84-1.12c-.08.39.27.56.2.94a1,1,0,0,1-.46-1C74.66,24.54,74.85,24.5,74.94,24.46Zm1.76-7.1c-.15,0-.07.24-.21.24,0-.22-.3-.21-.23-.49C76.49,17.13,76.71,17.16,76.7,17.36Zm.63,1.11a.5.5,0,0,1-.51-.45C77,18.16,77.32,18.21,77.33,18.47ZM75.69,24.1c.44.14.18.37,0,.73a.47.47,0,0,0-.35,0l.06-.16C75.74,24.61,75.77,24.4,75.69,24.1Zm2-6.68c.17.33.63.45.55,1-.26-.26-.52.06-.73-.16s.48-.33.25-.51c-.18,0-.2.23-.49.1C77.26,17.55,77.47,17.51,77.64,17.42Zm.21,1.85a.61.61,0,0,1-.46,0c.15-.33-.18-.32-.09-.6l.18,0C77.39,19,77.72,19,77.85,19.27ZM76.47,26c-.11-.26-1-.68-.41-.86C76,25.53,76.61,25.56,76.47,26Zm-.19,2c-.18-.09-.32-.19-.31-.36A.26.26,0,0,1,76.28,28Zm.67-.21c0-.39-.84-1-.22-1.25C76.59,27,77.23,27.46,77,27.77Zm-.84,2.45c-.27-.07-.27-.22-.26-.38C76,29.77,76.18,30,76.11,30.22Zm.77-.69c-.4.49.12.65,0,1-.44-.06-.33-.76-.44-1.11C76.62,29.55,76.7,29.38,76.88,29.53Zm.28,0c-.22.43.58.2.42.66-.31-.24-.2-.11-.51-.14C77,29.93,76.77,29.52,77.16,29.56Zm.46,1.91a.39.39,0,0,1-.31-.45C77.54,31,77.91,31.2,77.62,31.47ZM80.83,26c-.4-.08-.32-.35-.39-.56C80.59,25.61,80.88,25.73,80.83,26Zm.18-.22c-.24-.05-.38-.51-.1-.54C80.83,25.46,81.25,25.48,81,25.77Zm-.3,1.2c-.16-.06-.18.26-.32.25s-.33-.19-.21-.41C80.36,27,80.68,26.6,80.71,27Zm1.23-.53c-.11,0-.4-.17-.61,0,.18.11.08.31,0,.52-.27-.26-.74-.44-.63-.84C81.13,26.49,82,25.72,81.94,26.44ZM77,33.75c-.3,0-.27-.42,0-.39C76.92,33.51,77.24,33.58,77,33.75Zm4.36-6c-.22-.09-.33-.21-.21-.42C81.38,27.38,81.5,27.51,81.37,27.72ZM78.24,32.8c.11.25.31.74,0,.89.25.16,0,.61.44.56l-.22.27c-.24-.11-.12-.27-.36-.23.1-.35.06-.52-.36-.51.07-.26.24-.09.35-.18l-.37-.22C78,33,78.26,33.27,78.24,32.8Zm0,2.1c-.35.37-.67-.27-.45-.5.12.05.21,0,.33,0C78.21,34.76,77.69,34.73,78.24,34.9Zm.5.57c-.2.31-.46.05-.71-.08.09-.11-.13-.17,0-.29C78.51,35.24,78.27,35.39,78.74,35.47ZM77.42,37c-.13-.16-.3-.3-.11-.49C77.55,36.67,77.57,36.84,77.42,37Zm-16.79,9c.09.11.11.35-.18.2.18,0,0-.19-.16-.25A.9.9,0,0,1,60.63,46.07ZM78.48,40c-.38.31-.84-.54-.31-.51C78,39.7,78.44,39.67,78.48,40Zm-18,6.55c0,.19.13.56-.34.41.26-.11-.25-.22-.39-.37a2.17,2.17,0,0,1,.68.22C60.24,46.57,60.2,46.38,60.53,46.52Zm-.37.81c.1,0,0-.19.14-.2C60.67,47.29,60.38,47.56,60.16,47.33Zm23.48-7.41a.51.51,0,0,1,0-.65C83.94,39.49,83.78,39.71,83.64,39.92ZM84,41.13c.48.2,0,.31,0,.52.35-.15.55.19.73.33-.31.29-.51-.44-.82-.14.1.08.21,0,.3.22s-.27.49-.42.36c.26-.36-.79-1.8.14-1.43,0-.27-.27-.89.14-.92C84.27,40.23,84.33,41,84,41.13Zm.59.44a1.92,1.92,0,0,1-.13-1C84.65,40.9,84.85,41.25,84.59,41.57ZM59.94,49.48c-.22,0,.07.57-.34.34C59.72,49.72,59.5,49.27,59.94,49.48Zm24.78-6.69c-.12.07-.24.24-.34.16.23-.31.18-.46-.12-.61C84.64,42.16,84.63,42.53,84.72,42.79ZM83.88,44c-.26.12.1.33-.25.43C83.52,44.18,83.64,43.72,83.88,44Zm1.45-.34c-.15.16-.28.21-.39.09.07-.08.21-.16.15-.26s-.11-.15,0-.21Zm-26.24,7.2c-.07-.09-.16-.14-.2-.26.25.09.16-.07.28-.07C59.27,50.67,59.32,50.84,59.09,50.81ZM83.6,46.29c-.12-.07-.2.25-.26.27.09.1.21,0,.3.13,0,.35-.39.38-.6.07a4.56,4.56,0,0,1,.34-1C83.47,46.05,83.62,46.17,83.6,46.29ZM58.29,50.93l.29.06C58.75,51.24,58.34,51.15,58.29,50.93ZM83,47.87a.4.4,0,0,1-.19.54.4.4,0,0,1,.07-.57S82.92,47.92,83,47.87ZM58.12,52.61c-.12,0-.11.1-.29,0s-.36-.27-.18-.28c.09.16.25.2.21.05a.86.86,0,0,1-.29-.25c.14,0,0-.15.23-.05C57.84,52.36,58.09,52.36,58.12,52.61ZM83.07,49.9c-.21.22-.17.89-.49.85.15-.15.06-.38.12-.56-.16.06-.13.18-.28.24,0-.2,0-.49-.28-.56A2.89,2.89,0,0,1,83.07,49.9ZM57.69,53c-.07-.12-.21-.2-.26-.35C57.61,52.73,57.94,53,57.69,53Zm24.65-1.92a.68.68,0,0,1-.84-.1.46.46,0,0,0,.2-.19C81.87,51,82.22,50.7,82.34,51.08ZM57.28,52.94c-.09-.16-.09-.25.09-.16S57.46,53,57.28,52.94Zm25-1a1.57,1.57,0,0,1,.33-1c0,.37,0,.48,0,.74,0-.06-.11-.06-.2,0S82.4,51.89,82.25,51.93Zm-.4.39c-.08-.11-.22,0-.32-.06a1,1,0,0,1,.29-1c.09.25.3.16.39.41C82,51.84,82.05,52.12,81.85,52.32ZM57.09,53.7a.9.9,0,0,0-.3-.5c.17.07.09-.13.22-.11.18.39.23.12.36.35C57.1,53.36,57.26,53.69,57.09,53.7ZM82.33,53c-.15.09-.23,0-.37.06,0,.08.11.07.15.13-.25.2-.32,0-.39-.22.1-.06.25-.09.22-.19s-.14-.09-.19-.21a1.45,1.45,0,0,0,.25-.1C82.14,52.86,82.08,52.78,82.33,53Zm-1.18.48c.06.25-.18.37-.25.57C80.69,53.71,80.8,53.33,81.15,53.46Zm-.1,1.46c0,.2,0,.44-.17.55-.21-.29.07-.34.09-.52-.07,0-.17.06-.2,0A.39.39,0,0,1,81.05,54.92ZM80,56c.23-.12.09-.42.39-.5C80.51,55.76,80.31,56.21,80,56ZM80,55.87c-.06,0-.08.1,0,.19-.19.08-.33.07-.4-.07.11-.05.1-.17.2-.24C79.8,55.86,79.94,55.78,80,55.87Zm-.74,1.2a.77.77,0,0,1,.36-.91C79.7,56.57,79.3,56.72,79.25,57.07Zm.52.5c-.33-.32-.09-.63.11-.86C80,57.08,80.05,57.41,79.77,57.57Zm-1.48.92c-.12,0-.2-.09-.36,0-.08-.35-.06-.64.33-.71C78.13,58.05,78.15,58.39,78.29,58.49ZM77.09,62c-.06-.22-.13.14-.35,0s.3-.42.4-.24C77,61.85,77.22,61.94,77.09,62ZM55.69,77.12c-.19-.07-.35,0-.56-.17a1.16,1.16,0,0,1,.7-.5l.22.16C55.72,76.81,55.77,76.74,55.69,77.12Zm-2.17,0c.32.26.62-.32.62.23C54,77.23,53.5,77.46,53.52,77.12Zm-15.13-21c.47-.27-.25-.27.32-.69,0,.3-.05.3.08.39C38.7,56,38.47,56.42,38.39,56.17Zm.62-.55c0,.08,0,.22.07.18s.21-.55.33-.41c0,.15-.17.25-.15.42-.18,0-.37.48-.56.44A1,1,0,0,1,39,55.62Zm8.32,22.32c-.2.17-.39.07-.57,0,0-.21.27-.14.46-.42C47.43,77.68,47.21,77.8,47.33,77.94ZM37.9,56a2.19,2.19,0,0,1,.21-.61c0,.16.28-.15.25.13C38.14,55.74,38.13,55.69,37.9,56ZM46,77.66c.29.16.24-.27.5-.08C46.58,77.74,45.92,78.08,46,77.66Zm-8.19-21.8c-.13.1-.19.06-.19-.11s.18-.21.24-.16S37.83,55.75,37.84,55.86ZM28.71,74.4c.1.28.48,0,.6.24C29,74.86,28.54,74.68,28.71,74.4Zm-.9-.32c.25.15.59.15.76.46A.56.56,0,0,1,27.81,74.08Zm-.52.08.33-.11.07.25C27.44,74.46,27.39,74.26,27.29,74.16ZM20.21,55.65c.07-.25.3-.3.55-.33s.46.32.88.39c0,.09,0,.22-.13.24A3.28,3.28,0,0,1,20.21,55.65Zm-.79-1a.48.48,0,0,1,.25-.3c.23.21.59.33.73.6C20,54.89,19.78,54.74,19.42,54.66ZM17.65,69.09a.61.61,0,0,1,.8.18C18.05,69.38,17.89,69.19,17.65,69.09Zm.47-15.26a1.89,1.89,0,0,0,1.34.22l-.1.3C19.09,54.21,18.19,54.44,18.12,53.83ZM13,67.54a.53.53,0,0,1-.36-.11c0-.46.57-.26.46-.81.21.14.59.11.54.48C13.39,66.79,13,67,13,67.54ZM16.67,50.6c.12-.19.32-.11.48-.19-.06.14.13.18-.08.38C16.9,50.75,16.93,50.62,16.67,50.6ZM12.9,54.79c0-.19-.46-.09-.62-.1,0-.3.21-.16.29-.28a.15.15,0,0,1,0-.2c.2.25.26.51.58.19C13.2,54.53,13.06,54.72,12.9,54.79ZM9,60.13c-.07.25.34.19.22.47C8.91,60.64,8.73,60.17,9,60.13ZM8,58.38c.36.23.71.44.72.85C8.46,58.93,7.94,58.81,8,58.38ZM7.37,57c.21.13.41.25.27.55A.47.47,0,0,1,7.37,57Zm-1.08.67c.09-.27,0-.35-.14-.28,0-.41.58.1.44.32A.42.42,0,0,0,6.29,57.63ZM5.93,42.52c.23,0,.31.49.26.73C6,43.23,5.7,42.74,5.93,42.52Z"/><path class="cls-2" d="M70.28,10.15c-.14,0,.1.16-.07.19,1,0,1.21.81,2,1a3.88,3.88,0,0,0-1.34-1.27c-.1,0-.06.17-.06.28C70.62,10.29,70.38,10.31,70.28,10.15Z"/><path class="cls-2" d="M38.48,29.54c.21.06.16-.26.28-.33C38.62,29.26,38.44,29.25,38.48,29.54Z"/><path class="cls-2" d="M43.86,25c0,.12,0,.21,0,.32S44,25.14,44,25a.6.6,0,0,0,.18.21C44.14,25,44,25,43.86,25Z"/><path class="cls-2" d="M33.44,19.88c-.13.17.28-.13.45.16,0-.17-.13-.26-.2-.4C33.4,19.6,33.73,19.93,33.44,19.88Z"/><path class="cls-2" d="M38.14,21.55a.28.28,0,0,0,.2.33c-.09-.15,0-.26.1-.28C38.44,21.41,38.24,21.6,38.14,21.55Z"/><path class="cls-2" d="M36.89,20.5c-.07-.08-.06-.21-.21-.25a.65.65,0,0,0,0,.42c.14,0,.08-.24.25-.14C37,20.44,36.89,20.46,36.89,20.5Z"/><path class="cls-2" d="M46.12,26.17c.2.25,0-.16,0-.26s.08.18.21.21c0-.38.21-.34.41-.23,0-.12,0-.25-.06-.37a.39.39,0,0,1-.59.2C46.14,26,46,26,46.12,26.17Z"/><path class="cls-2" d="M35.68,19.42c.47-.37.86-.47,1.17-1.08-.12-.07-.21.05-.22-.1-.25,0-.06.15-.21.33-.13-.3-.67.31-.63,0C35.56,18.41,35.6,19.11,35.68,19.42Z"/><path class="cls-2" d="M48.16,27.85a.26.26,0,0,0,.46,0C48.47,27.89,48.31,27.84,48.16,27.85Z"/><path class="cls-2" d="M23.85,14.43c.15.18-.07.19,0,.49.35-.1.2-.27.27-.43S24,14.5,23.85,14.43Z"/><path class="cls-2" d="M36.78,18.81c.12-.15.36-.09.38-.43C36.86,18.22,36.91,18.67,36.78,18.81Z"/><path class="cls-2" d="M46.88,24.68c-.05.12.08.2.06.31s.13-.07.19-.11C47.13,24.68,47,25,46.88,24.68Z"/><path class="cls-2" d="M30.43,14.1c0-.08-.09-.09-.14-.13,0-.21.17-.14.14-.39-.24,0-.49.05-.49.46C30.19,14,30.17,13.86,30.43,14.1Z"/><path class="cls-2" d="M37.58,14.43c.17-.27.27,0,.53-.11a3.2,3.2,0,0,1,0-.54C37.94,14,37.54,14.19,37.58,14.43Z"/><path class="cls-2" d="M50,25.39c-.05-.24.11-.09.08-.36s-.1.17-.16-.1c0,.27-.08.38,0,.76.05-.11.11-.18.16-.09C50.11,25.44,50,25.49,50,25.39Z"/><path class="cls-2" d="M50.34,25.72c.09.22.2-.25.28.16.08-.23,0-.17,0-.32C50.53,25.63,50.44,25.58,50.34,25.72Z"/><path class="cls-2" d="M50.79,25.45c0-.11,0-.21,0-.32-.14.15-.25.09-.38-.11,0,.54.24.14.31.61.08-.32.15-.1.19.15.13-.09.14-.22.27-.38,0-.07-.08-.09-.11-.17-.07.08,0,.22-.05.31s0,0-.07.05c0-.13.07-.25,0-.38S50.81,25.29,50.79,25.45Z"/><path class="cls-2" d="M32.32,5.17c0,.1.07.08.09,0s.25.06.22.17c.13,0,.16-.19.22-.32A2.27,2.27,0,0,0,32.32,5.17Z"/><path class="cls-2" d="M39.25,4.29c-.07.2,1,.2,1.26-.25-.11,0-.48.33-.44,0C39.76,4,39.61,4.53,39.25,4.29Z"/><path class="cls-2" d="M43.07,4.32c.32.06.54.49.9.09-.16-.49-.8.07-.82-.49C42.85,4.11,43.37,4.13,43.07,4.32Z"/><path class="cls-2" d="M55.19,14.1c-.17.21.16.16.19.26s.12-.24.2-.13.06-.07,0-.12L55.56,14c0,.1-.37.36-.2.13C55.28,14,55.27,14.23,55.19,14.1Z"/><path class="cls-2" d="M51.58,4.37c0,.24.64.2.88.32-.13.36.43.72.63.87a3.87,3.87,0,0,0-.21-1.12c-.15.63-.47-.19-1-.17C51.86,4.43,51.77,4.48,51.58,4.37Z"/><path class="cls-2" d="M53.85,5.89c0,.27.78.29,1.09.46.26-.19-.48-.2-.21-.43A.89.89,0,0,1,53.85,5.89Z"/><path class="cls-2" d="M53.29,4.76c-.33.11,0,.23.13.15a.23.23,0,0,1,0,.33c.11.08.24,0,.35.12-.11-.13-.14-.56.26-.15.1-.09-.09-.23-.17-.35A.45.45,0,0,1,53.29,4.76Z"/><path class="cls-2" d="M56.94,5.85c-.1-.09-.24-.06-.34-.17-.3.06,0,.3-.32.37C56.51,6.09,56.55,5.94,56.94,5.85Z"/><path class="cls-2" d="M61.05,4.28c-.11.2-.12,0-.39.12.23.23-.27.21.05.49L61,4.81c-.07-.22-.12-.44.24-.18C61.46,4.54,61,4.52,61.05,4.28Z"/><path class="cls-2" d="M63.64,10.57c-.1-.15-.11.13,0,.09a.4.4,0,0,1-.3.26c.13.17.58-.07.47-.3C63.73,10.66,63.67,10.64,63.64,10.57Z"/><path class="cls-2" d="M64.06,20.71c0,.09.08,0,.08,0,.25-.07,0,.42.37.23.1-.35-.19-.27-.28-.41C64.15,20.56,64.17,20.69,64.06,20.71Z"/><path class="cls-2" d="M68.18,7.68a.73.73,0,0,0-.65-.58c.08.48.42.57.55,1,.37-.29.67.18,1,.25C69.08,8.29,68.45,7.42,68.18,7.68Z"/><path class="cls-2" d="M68.69,8.55c.25.25.71.22.83.66.49-.53.71.78,1.3.81.07-.08,0-.25.15-.29-.26-.14-.68-.07-.63-.6-.49-.07-.7-.47-1-.74-.11,0,0,.24,0,.38C69,8.74,69,8.43,68.69,8.55Z"/><path class="cls-2" d="M68.89,6.93c-.16.3.15.66.48,1a1.65,1.65,0,0,0,1,.5C69.86,8,69,7.63,68.89,6.93Z"/><path class="cls-2" d="M72.48,10.65a6.32,6.32,0,0,0,.52.64C73.17,11.1,72.71,10.73,72.48,10.65Z"/><path class="cls-2" d="M74.94,13.42a2.45,2.45,0,0,0,.51.84c.25.3.53.63.77.87.09-.46-.41-.42-.15-.79-.38.25-.31-.48-.75-.44,0-.3.47-.17.19-.45C75.35,13.77,75.16,13.68,74.94,13.42Z"/><path class="cls-2" d="M75.31,12.88c-.25.24.38.47.49.68.28-.05-.13-.24,0-.46C75.43,13.11,75.43,13.21,75.31,12.88Z"/><path class="cls-2" d="M76.31,15.23a2.89,2.89,0,0,0,.76,1.25C77.55,15.82,76.69,15.5,76.31,15.23Z"/><path class="cls-2" d="M80.15,21.63a2.67,2.67,0,0,0,.4.66l.08-.28C80.27,22,80.44,21.69,80.15,21.63Z"/><path class="cls-2" d="M82.76,24.84l-.53-.24c0,.36.55.16.49.64C82.93,25.31,82.71,24.94,82.76,24.84Z"/><path class="cls-2" d="M83.89,28.8c-.53.28.43.32-.11.83a.39.39,0,0,1,.28.08C84.27,29.34,84,29.1,83.89,28.8Z"/><path class="cls-2" d="M85.32,35.34c.06-.19-.17,0-.06.07-.13.14-.3,0-.45,0,0,.23.32.44.07.69.65.23.29.64.41,1s.26-.18.39.13c-.19-.39,0-.8-.29-1.18.09-.14.2-.08.3-.23C85.48,35.82,85.33,35.53,85.32,35.34Z"/><path class="cls-2" d="M84.55,46.42c-.36.28.19.77-.23,1,.08.09.23-.06.35-.13C84.35,47,84.87,46.78,84.55,46.42Z"/><path class="cls-2" d="M83,53.19c-.22-.09-.57.66-.39.74C82.76,53.69,82.74,53.38,83,53.19Z"/><path class="cls-2" d="M79.06,58.3c.1.17.25.23.37.37.16-.11.17-.29.14-.5-.25,0-.11.22-.18.32S79.46,58.08,79.06,58.3Z"/><path class="cls-2" d="M62,75.92c-.09-.34-.5.09-.73,0-.05.07,0,.1,0,.12l.18.08C61.56,75.86,61.81,76,62,75.92Z"/><path class="cls-2" d="M44.3,55.24c-.14-.08-.33,0-.46-.22-.15.35-.32.1-.47,0s0,.13-.07.18,0,.08,0,.12C43.65,55.19,43.93,55.46,44.3,55.24Z"/><path class="cls-2" d="M25.4,75.18c-.36,0-.11.33-.47.31,0,.06.11.06.13.15l.17,0C25,75.3,25.6,75.47,25.4,75.18Z"/><path class="cls-2" d="M23.24,73.47c-.08-.49-.23.43-.42.1-.22.13.1.34.3.2C23.06,73.6,23.09,73.49,23.24,73.47Z"/></g></g></svg>