<svg xmlns="http://www.w3.org/2000/svg" viewBox="0 0 75.85 75.84"><defs><style>.cls-1{fill:#fff;}</style></defs><g id="圖層_2" data-name="圖層 2"><g id="分享圖案"><path class="cls-1" d="M47.15,57.85a17.76,17.76,0,0,1-4.67.87c-3.75,0-6.49-.8-8.2-2.41s-2.58-4.16-2.58-7.67V32.47H28.26V27.29H31.7V22.12L40,21.17v6.12h6.57v5.18H40V47.55q0,5.66,4.61,5.66a10.36,10.36,0,0,0,2.55-.4Z"/><path class="cls-1" d="M62.25,74.69c-11.31,0-22.61.44-33.92.8-2.82.08-5.65.2-8.48.25l-4.24.08-2.12,0a14.07,14.07,0,0,1-2.31-.15A13.18,13.18,0,0,1,0,62.54L.41,45.59c.16-5.66.3-11.31.35-17l0-8.48V15.91A28.53,28.53,0,0,1,.91,11.6,12.78,12.78,0,0,1,13.25.72C24.55.44,35.86.22,47.17.13L55.64.06l4.24,0L62,0a16,16,0,0,1,2.36.16,13.33,13.33,0,0,1,8.21,4.56,13.7,13.7,0,0,1,3.28,8.82c-.07,11.31-.16,22.62-.61,33.92l-.3,8.48-.14,4.24-.07,2.12a13.56,13.56,0,0,1-.23,2.18,12.53,12.53,0,0,1-4.32,7.34A12.38,12.38,0,0,1,62.25,74.69Zm0-.3a11.84,11.84,0,0,0,7.64-2.91,11.42,11.42,0,0,0,3.79-7.14,27.47,27.47,0,0,0,0-4.16l-.13-4.24-.3-8.48c-.46-11.3-.54-22.61-.61-33.92A10.51,10.51,0,0,0,63.87,3.25,11.22,11.22,0,0,0,62,3.09l-2.12,0L55.64,3,47.17,3c-11.31-.09-22.62-.31-33.92-.59A11.34,11.34,0,0,0,5.89,4.93a11.11,11.11,0,0,0-4,6.83,26.81,26.81,0,0,0-.19,4.15v4.24l0,8.48c0,5.65.19,11.3.34,17L2.5,62.54a11,11,0,0,0,2.66,6.92,10.88,10.88,0,0,0,6.43,3.62,11.69,11.69,0,0,0,1.9.16l2.12,0,4.24.09c2.83.05,5.66.16,8.48.25C39.64,74,50.94,74.44,62.25,74.39Z"/></g></g></svg>