<svg xmlns="http://www.w3.org/2000/svg" viewBox="0 0 75.85 75.84"><defs><style>.cls-1{fill:#fff;}</style></defs><g id="圖層_2" data-name="圖層 2"><g id="分享圖案"><path class="cls-1" d="M60.5,36.15c-1.17,0-2.33,0-3.5,0-.91,0-1.24-.34-1.16-1.26.54-5.75,1-11.5,1.57-17.24.16-1.79,0-2-1.77-1.73L54,16.15,17.26,21.87c-1.59.25-1.72.42-1.3,2,.88,3.34,1.72,6.68,2.68,10,.37,1.26,0,1.57-1.21,1.51-1.4-.07-2.8,0-4.2,0-1.78,0-1.87.14-1.31,1.85,2.27,7,4.58,14,6.8,21A1.77,1.77,0,0,0,21,59.69c4.42-.7,8.85-1.32,13.27-2,3.47-.53,3.46-.54,3.46,3v1.4c0,2.29,0,2.31,2.1,1.36,5.6-2.55,11.16-5.18,16.8-7.63,1.95-.85,3.19-1.93,3.16-4.16a8,8,0,0,1,.24-1.52q1-6,2-12C62.42,36.37,62.24,36.16,60.5,36.15ZM43,36.9c.1-1.2.13-2.41.19-3.62h0V29.51c0-.66.24-1.06,1-1.1,1.54-.07,3.07-.28,4.6-.24,2.44.08,3.51,2.15,2.22,4.22A1,1,0,0,0,51,33.81a2.58,2.58,0,0,1-1.47,4.33,16.41,16.41,0,0,1-5.55.1C43.15,38.16,42.93,37.69,43,36.9ZM23.28,29.84c.69-.06,1.44-.17,1.65.81a13.59,13.59,0,0,0,1.13,3.46c.3-1.16.63-2.3.88-3.47a1.29,1.29,0,0,1,1.48-1.13c.83,0,1.14.43,1.31,1.15.25,1.13.56,2.25.93,3.7a22.08,22.08,0,0,0,1.17-3.9c.16-.52.21-1.08.94-1.23,1.26-.25,1.68.11,1.36,1.35-.52,2-1.12,4-1.62,6.07a1.47,1.47,0,0,1-1.71,1.23,1.45,1.45,0,0,1-1.65-1.3,9.27,9.27,0,0,0-.89-2.77,10.66,10.66,0,0,0-1,2.92c-.24.91-.81,1.11-1.66,1.1a1.3,1.3,0,0,1-1.46-1.15c-.42-1.86-.92-3.71-1.35-5.57C22.69,30.63,22.31,29.93,23.28,29.84Zm3.5,12.48c-1.87-.24-2,.77-1.9,2.24s0,2.7.05,4-.6,1.53-1.71,1.56-1.31-.58-1.27-1.49,0-1.68,0-2.51V44.91c0-2.18,0-2.21-2.16-2.6-1-.18-.88-.91-.92-1.59s.28-1.13,1.06-1.1l6.83.26c.85,0,1,.55.95,1.23S27.6,42.43,26.78,42.32ZM33,49.87c-3,0-4.91-1.94-4.89-5a4.66,4.66,0,0,1,5-5,5,5,0,1,1-.1,10ZM36.41,38.1c-.76,0-1.09-.38-1.08-1.12,0-1.17,0-2.34,0-3.5h0V32.36c0-3.31,0-3.32,3.27-3.62.74-.06,1.49,0,2.24-.07s1.14.21,1.16,1-.37,1.17-1.17,1.16-1.4,0-2.1.06c-.47,0-1,.09-1,.71s.54.65,1,.66.84,0,1.26,0c.81,0,1.49,0,1.48,1.15s-.65,1.09-1.41,1.08c-.56,0-1.12,0-1.67,0a.66.66,0,0,0-.72.69c0,.47.32.66.74.68.83,0,1.67.06,2.51.05s1.09.33,1.08,1.1-.35,1.09-1.1,1.08C39.4,38.11,37.9,38.1,36.41,38.1ZM43.3,49.29a4.46,4.46,0,0,1-4.48-4.55,4.33,4.33,0,0,1,4.53-4.58,4.37,4.37,0,0,1,4.5,4.48A4.53,4.53,0,0,1,43.3,49.29Zm12.7-2c0,.46-.2.82-.7.89a1.72,1.72,0,0,1-1.88-.6l-1.88-2.66a3.82,3.82,0,0,0-.31,2.31c.05,1.13-.6,1.26-1.5,1.31s-1-.61-1-1.27c0-1.82,0-3.64,0-5.45,0-.54-.14-1.22.64-1.35a1.7,1.7,0,0,1,1.9.53c.64.92,1.24,1.85,1.88,2.77.14.21.26.56.62.42s.21-.39.22-.62c0-.65,0-1.3,0-2s.3-1.2,1.16-1.18,1.07.41,1,1.14C56.18,43.49,56.09,45.39,56,47.3Z"/><path class="cls-1" d="M33.09,42.43a2.36,2.36,0,0,0-2.24,2.51A2.32,2.32,0,0,0,33,47.36a2.43,2.43,0,0,0,2.33-2.6A2.31,2.31,0,0,0,33.09,42.43Z"/><path class="cls-1" d="M43.5,42.58a1.88,1.88,0,0,0-2.07,2.08A2,2,0,0,0,43.34,47a2.1,2.1,0,0,0,2.09-2.15A1.93,1.93,0,0,0,43.5,42.58Z"/><path class="cls-1" d="M48.36,31.24v0a.67.67,0,0,0-.67-.67H45.55v1.69h2.13A1.33,1.33,0,0,0,48.36,31.24Z"/><path class="cls-1" d="M48.36,34.89v0a.67.67,0,0,0-.67-.67H45.55v1.4h2.13A.68.68,0,0,0,48.36,34.89Z"/><path class="cls-1" d="M62.25,74.69c-11.31,0-22.61.44-33.92.8-2.82.08-5.65.2-8.48.24l-4.24.09-2.12,0a14.07,14.07,0,0,1-2.31-.15,13,13,0,0,1-8-4.5A13.19,13.19,0,0,1,0,62.54L.41,45.59c.16-5.66.3-11.31.35-17l0-8.48V15.91A28.53,28.53,0,0,1,.91,11.6,12.78,12.78,0,0,1,13.25.72Q30.2.29,47.17.13L55.64.06l4.24,0L62,0a16,16,0,0,1,2.36.16,13.33,13.33,0,0,1,8.21,4.56,13.65,13.65,0,0,1,3.28,8.82c-.07,11.31-.16,22.61-.61,33.92l-.3,8.48-.14,4.24-.07,2.12a13.32,13.32,0,0,1-.23,2.17,12.52,12.52,0,0,1-4.32,7.35A12.38,12.38,0,0,1,62.25,74.69Zm0-.3a11.84,11.84,0,0,0,7.64-2.91,11.42,11.42,0,0,0,3.79-7.14,28.81,28.81,0,0,0,0-4.16l-.14-4.24-.3-8.48c-.46-11.31-.54-22.61-.61-33.92A10.51,10.51,0,0,0,63.87,3.25,11.22,11.22,0,0,0,62,3.09l-2.12,0L55.64,3,47.17,3c-11.31-.09-22.62-.31-33.92-.59A11.34,11.34,0,0,0,5.89,4.93a11.11,11.11,0,0,0-4,6.83,26.81,26.81,0,0,0-.19,4.15v4.24l0,8.48c0,5.65.19,11.3.34,17L2.5,62.54a11.06,11.06,0,0,0,2.66,6.92,10.88,10.88,0,0,0,6.43,3.62,11.69,11.69,0,0,0,1.9.16l2.12,0,4.24.09c2.83.05,5.66.16,8.48.25C39.64,74,50.94,74.44,62.25,74.39Z"/></g></g></svg>