<svg xmlns="http://www.w3.org/2000/svg" viewBox="0 0 75.85 75.84"><defs><style>.cls-1{fill:#fff;}</style></defs><g id="圖層_2" data-name="圖層 2"><g id="分享圖案"><path class="cls-1" d="M62.25,74.69c-11.31,0-22.61.44-33.92.8-2.82.08-5.65.2-8.48.24l-4.24.09-2.12,0a14.07,14.07,0,0,1-2.31-.15,13,13,0,0,1-8-4.5A13.19,13.19,0,0,1,0,62.54L.41,45.59c.16-5.66.3-11.31.35-17l0-8.48V15.91A28.53,28.53,0,0,1,.91,11.6,12.78,12.78,0,0,1,13.25.72C24.55.44,35.86.22,47.17.13L55.64.06l4.24,0L62,0a16,16,0,0,1,2.36.16,13.33,13.33,0,0,1,8.21,4.56,13.65,13.65,0,0,1,3.28,8.82c-.07,11.31-.16,22.62-.61,33.92l-.3,8.48-.14,4.24-.07,2.12a13.32,13.32,0,0,1-.23,2.17,12.52,12.52,0,0,1-4.32,7.35A12.38,12.38,0,0,1,62.25,74.69Zm0-.3a11.84,11.84,0,0,0,7.64-2.91,11.42,11.42,0,0,0,3.79-7.14,28.81,28.81,0,0,0,0-4.16l-.14-4.24-.3-8.48c-.46-11.3-.54-22.61-.61-33.92A10.51,10.51,0,0,0,63.87,3.25,11.22,11.22,0,0,0,62,3.09l-2.12,0L55.64,3,47.17,3c-11.31-.09-22.62-.31-33.92-.59A11.34,11.34,0,0,0,5.89,4.93a11.11,11.11,0,0,0-4,6.83,26.81,26.81,0,0,0-.19,4.15v4.24l0,8.48c0,5.65.19,11.3.34,17L2.5,62.54a11.06,11.06,0,0,0,2.66,6.92,10.88,10.88,0,0,0,6.43,3.62,11.69,11.69,0,0,0,1.9.16l2.12,0,4.24.09c2.83.05,5.66.16,8.48.25C39.64,74,50.94,74.44,62.25,74.39Z"/><path class="cls-1" d="M61.84,30.6V45.06c-.12.82-.27,1.63-.37,2.45C61,51.61,59,53.68,54.9,54c-3.58.26-7.16.38-10.75.57-.71,0-1.41.11-2.12.16H34.18L32,54.54c-4-.25-7.94-.39-11.88-.78A5.55,5.55,0,0,1,15,49.22a31.49,31.49,0,0,1-.62-4.12c-.17-1.67-.26-3.36-.38-5V35.78c.05-.44.12-.87.16-1.31.19-2.18.31-4.37.58-6.55.46-3.75,2.61-5.79,6.38-6s7.34-.39,11-.58c.62,0,1.24-.1,1.86-.15h8c.44,0,.88.11,1.32.13,3.85.2,7.7.35,11.54.6s5.72,2,6.43,5.68C61.52,28.57,61.67,29.59,61.84,30.6Zm-28.53.11V45.13l12.56-7.21Z"/></g></g></svg>